<svg width="45" height="45" viewBox="0 0 45 45" fill="none" xmlns="http://www.w3.org/2000/svg">
<ellipse cx="22.8948" cy="22.5" rx="22.1053" ry="22.5" fill="#381DD8"/>
<path d="M18.1915 24.5684C17.104 24.7184 16.204 24.7934 15.4915 24.7934C15.2477 24.7934 15.1259 24.6997 15.1259 24.5122C15.1259 24.0809 15.4165 23.6309 15.9977 23.1622C16.5977 22.6747 17.5634 22.2528 18.8946 21.8965C19.4946 19.759 20.179 17.7997 20.9477 16.0184C19.0727 16.1122 17.5352 16.7309 16.3352 17.8747C16.0352 18.1747 15.7915 18.409 15.604 18.5778C15.4165 18.7465 15.2477 18.8309 15.0977 18.8309C14.9665 18.8309 14.8352 18.7184 14.704 18.4934C14.5727 18.2684 14.5071 17.9684 14.5071 17.5934C14.5259 16.1497 15.5009 14.9778 17.4321 14.0778C19.3634 13.1778 21.7446 12.7372 24.5759 12.7559L33.0134 12.8965C33.5196 12.8965 33.7727 13.0934 33.7727 13.4872C33.7727 13.5997 33.6977 13.8059 33.5477 14.1059C33.3977 14.3872 33.2665 14.6965 33.154 15.034C32.9102 15.709 32.3852 16.0465 31.579 16.0465H30.679L26.9384 16.0184H24.7727C24.6227 17.0872 24.1727 18.8309 23.4227 21.2497L28.5696 21.334C28.8696 21.334 29.0196 21.5122 29.0196 21.8684C29.0196 21.9809 28.9727 22.1778 28.879 22.459C28.7852 22.7403 28.7009 23.0309 28.6259 23.3309C28.4759 23.9497 28.1571 24.259 27.6696 24.259L23.3946 24.0622H23.029C22.9165 24.0622 22.7852 24.0715 22.6352 24.0903C21.6602 27.6715 21.1727 30.5028 21.1727 32.584C21.1727 33.6903 20.0946 34.2434 17.9384 34.2434C17.4696 34.2434 17.1884 34.009 17.0946 33.5403C17.0196 33.0528 16.9821 32.4153 16.9821 31.6278C16.9821 29.9403 17.3852 27.5872 18.1915 24.5684Z" fill="white"/>
</svg>
