<svg width="24" height="24" viewBox="0 0 24 24" fill="none" xmlns="http://www.w3.org/2000/svg">
<path d="M2 6C2 5.44772 2.44772 5 3 5H21C21.5523 5 22 5.44772 22 6C22 6.55229 21.5523 7 21 7L3 7C2.44772 7 2 6.55228 2 6Z" fill="#121127"/>
<path d="M2 12C2 11.4477 2.44772 11 3 11L16 11C16.5523 11 17 11.4477 17 12C17 12.5523 16.5523 13 16 13L3 13C2.44772 13 2 12.5523 2 12Z" fill="#121127"/>
<path d="M3 17C2.44772 17 2 17.4477 2 18C2 18.5523 2.44772 19 3 19L11 19C11.5523 19 12 18.5523 12 18C12 17.4477 11.5523 17 11 17L3 17Z" fill="#121127"/>
</svg>