<svg width="2925" height="2472" viewBox="0 0 2925 2472" fill="none" xmlns="http://www.w3.org/2000/svg">
<path fill-rule="evenodd" clip-rule="evenodd" d="M1536.43 718.01L1522.07 707.125C1504.55 693.85 1491.69 684.109 1480.7 677.647C1469.8 671.239 1461.11 668.286 1452 668.286C1442.89 668.286 1434.2 671.239 1423.3 677.647C1412.31 684.109 1399.45 693.85 1381.93 707.125L1367.57 718.01L1367.41 718.132C1355.25 727.345 1345.92 734.423 1337.79 739.482C1329.56 744.606 1322.34 747.815 1314.36 749.148C1306.37 750.481 1298.5 749.79 1289.05 747.615C1279.73 745.468 1268.6 741.806 1254.11 737.039L1254.11 737.039L1253.92 736.976L1236.8 731.344C1215.92 724.475 1200.59 719.438 1188.1 716.895C1175.71 714.374 1166.53 714.402 1157.92 717.36C1149.3 720.318 1142.04 725.933 1133.81 735.533C1125.51 745.213 1116.51 758.603 1104.25 776.846L1094.21 791.805L1094.09 791.973C1085.59 804.633 1079.05 814.36 1073.01 821.782C1066.89 829.301 1061.11 834.68 1053.99 838.533C1046.86 842.387 1039.2 844.289 1029.56 845.3C1020.04 846.297 1008.32 846.448 993.069 846.643L992.868 846.646L974.848 846.877C952.873 847.159 936.739 847.373 924.096 849.024C911.559 850.662 902.888 853.669 895.699 859.265C888.51 864.86 883.467 872.527 878.801 884.279C874.097 896.129 869.929 911.717 864.261 932.95L859.613 950.362L859.562 950.556C855.628 965.292 852.606 976.614 849.302 985.597C845.955 994.695 842.229 1001.66 836.746 1007.62C831.262 1013.57 824.627 1017.86 815.836 1021.95C807.157 1025.98 796.123 1029.93 781.762 1035.07L781.573 1035.14L764.605 1041.21C743.912 1048.61 728.722 1054.05 717.3 1059.72C705.974 1065.34 698.749 1071 693.767 1078.62C688.784 1086.25 686.504 1095.14 685.907 1107.77C685.305 1120.5 686.424 1136.6 687.958 1158.52L689.216 1176.5L689.23 1176.7C690.294 1191.92 691.112 1203.61 690.903 1213.17C690.692 1222.87 689.43 1230.66 686.178 1238.08C682.926 1245.49 678.043 1251.7 671.055 1258.42C664.157 1265.06 655.004 1272.37 643.092 1281.89L643.088 1281.89L643.086 1281.9L642.93 1282.02L628.852 1293.27C611.684 1306.99 599.083 1317.07 590.121 1326.14C581.233 1335.13 576.237 1342.83 574.001 1351.66C571.765 1360.49 572.494 1369.64 576.03 1381.78C579.596 1394.02 585.882 1408.88 594.451 1429.12L601.477 1445.71L601.556 1445.9L601.556 1445.9L601.557 1445.9C607.503 1459.94 612.072 1470.74 614.982 1479.85C617.929 1489.09 619.268 1496.87 618.599 1504.94C617.93 1513.01 615.329 1520.47 610.901 1529.1C606.531 1537.61 600.249 1547.5 592.073 1560.37L592.071 1560.37L592.07 1560.38L591.962 1560.55L582.3 1575.76C570.517 1594.31 561.871 1607.93 556.339 1619.42C550.853 1630.81 548.628 1639.71 549.38 1648.79C550.132 1657.87 553.792 1666.29 561.079 1676.62C568.426 1687.04 579.197 1699.06 593.872 1715.41L605.906 1728.83L606.042 1728.98C616.226 1740.33 624.051 1749.05 629.764 1756.73C635.55 1764.51 639.344 1771.44 641.332 1779.29C643.319 1787.14 643.281 1795.04 641.894 1804.63C640.524 1814.1 637.794 1825.5 634.239 1840.33L634.193 1840.53L629.993 1858.05C624.872 1879.43 621.118 1895.12 619.616 1907.78C618.126 1920.33 618.912 1929.48 622.572 1937.82C626.231 1946.16 632.426 1952.94 642.672 1960.34C653.005 1967.81 667.093 1975.68 686.285 1986.39L702.023 1995.17L702.202 1995.27C715.52 2002.7 725.752 2008.4 733.648 2013.81C741.646 2019.29 747.485 2024.61 751.913 2031.39C756.342 2038.17 758.87 2045.65 760.674 2055.18C762.454 2064.58 763.572 2076.25 765.026 2091.43L765.045 2091.63L766.764 2109.57C768.86 2131.44 770.405 2147.51 773.095 2159.97C775.762 2172.33 779.475 2180.72 785.645 2187.42C791.815 2194.13 799.873 2198.52 811.969 2202.2C824.167 2205.91 840.046 2208.77 861.675 2212.67L879.411 2215.86L879.612 2215.9L879.614 2215.9L879.618 2215.9C894.624 2218.6 906.154 2220.68 915.377 2223.23C924.72 2225.81 931.971 2228.95 938.36 2233.92C944.749 2238.9 949.571 2245.16 954.37 2253.58C959.107 2261.89 963.951 2272.56 970.256 2286.45L970.258 2286.45L970.258 2286.46L970.34 2286.64L977.79 2303.05C986.876 2323.06 993.553 2337.75 1000.14 2348.66C1006.68 2359.48 1012.92 2366.22 1020.93 2370.55C1028.94 2374.89 1037.99 2376.43 1050.62 2375.98C1063.37 2375.53 1079.31 2373.08 1101.04 2369.74L1118.85 2367L1119.05 2366.97C1134.12 2364.66 1145.7 2362.88 1155.26 2362.29C1164.93 2361.7 1172.81 2362.32 1180.47 2364.95C1188.13 2367.58 1194.72 2371.93 1201.99 2378.34C1209.17 2384.67 1217.22 2393.19 1227.7 2404.28L1227.83 2404.42L1240.21 2417.52C1255.3 2433.5 1266.38 2445.22 1276.16 2453.4C1285.85 2461.52 1293.94 2465.86 1302.92 2467.36C1311.91 2468.86 1320.97 2467.38 1332.77 2462.85C1344.68 2458.29 1358.97 2450.8 1378.43 2440.58L1394.39 2432.21L1394.57 2432.12C1408.07 2425.03 1418.45 2419.59 1427.29 2415.93C1436.25 2412.23 1443.9 2410.26 1452 2410.26C1460.1 2410.26 1467.75 2412.23 1476.71 2415.93C1485.55 2419.59 1495.92 2425.03 1509.42 2432.11L1509.43 2432.12L1509.61 2432.21L1525.57 2440.58C1545.03 2450.8 1559.32 2458.29 1571.23 2462.85C1583.03 2467.38 1592.09 2468.86 1601.08 2467.36C1610.06 2465.86 1618.15 2461.52 1627.84 2453.4C1637.62 2445.22 1648.7 2433.5 1663.8 2417.52L1676.17 2404.42L1676.3 2404.28C1686.78 2393.19 1694.83 2384.67 1702.01 2378.34C1709.28 2371.93 1715.87 2367.58 1723.53 2364.95C1731.19 2362.32 1739.07 2361.7 1748.74 2362.29C1758.3 2362.88 1769.88 2364.66 1784.95 2366.97L1785.15 2367L1802.96 2369.74C1824.69 2373.08 1840.64 2375.53 1853.38 2375.98C1866.01 2376.43 1875.06 2374.89 1883.07 2370.55C1891.08 2366.22 1897.32 2359.48 1903.86 2348.66C1910.45 2337.75 1917.12 2323.06 1926.21 2303.05L1933.66 2286.64L1933.74 2286.45L1933.75 2286.44C1940.05 2272.56 1944.89 2261.89 1949.63 2253.58C1954.43 2245.16 1959.25 2238.9 1965.64 2233.92C1972.03 2228.95 1979.28 2225.81 1988.62 2223.23C1997.85 2220.68 2009.38 2218.6 2024.38 2215.9L2024.39 2215.9L2024.59 2215.86L2042.33 2212.67C2063.95 2208.77 2079.83 2205.91 2092.03 2202.2C2104.13 2198.52 2112.19 2194.13 2118.36 2187.42C2124.53 2180.72 2128.24 2172.33 2130.91 2159.97C2133.6 2147.51 2135.14 2131.44 2137.24 2109.57L2138.96 2091.63L2138.97 2091.43C2140.43 2076.25 2141.55 2064.58 2143.33 2055.18C2145.13 2045.65 2147.66 2038.17 2152.09 2031.39C2156.52 2024.61 2162.35 2019.29 2170.35 2013.81C2178.25 2008.4 2188.48 2002.69 2201.8 1995.26L2201.98 1995.17L2217.72 1986.39C2236.91 1975.68 2251 1967.81 2261.33 1960.34C2271.57 1952.94 2277.77 1946.16 2281.43 1937.82C2285.09 1929.48 2285.87 1920.33 2284.38 1907.78C2282.88 1895.12 2279.13 1879.43 2274.01 1858.05L2269.81 1840.53L2269.76 1840.33L2269.76 1840.33C2266.21 1825.5 2263.48 1814.1 2262.11 1804.63C2260.72 1795.04 2260.68 1787.14 2262.67 1779.29C2264.66 1771.44 2268.45 1764.51 2274.24 1756.73C2279.95 1749.05 2287.77 1740.33 2297.96 1728.98L2297.96 1728.98L2297.96 1728.98L2298.09 1728.83L2310.13 1715.41C2324.8 1699.06 2335.57 1687.04 2342.92 1676.62C2350.21 1666.29 2353.87 1657.87 2354.62 1648.79C2355.37 1639.71 2353.15 1630.81 2347.66 1619.42C2342.13 1607.93 2333.48 1594.31 2321.7 1575.76L2312.04 1560.55L2311.93 1560.37C2303.75 1547.5 2297.47 1537.61 2293.1 1529.1C2288.67 1520.47 2286.07 1513.01 2285.4 1504.94C2284.73 1496.87 2286.07 1489.09 2289.02 1479.85C2291.93 1470.74 2296.5 1459.95 2302.44 1445.91L2302.45 1445.9L2302.52 1445.71L2309.55 1429.12C2318.12 1408.88 2324.4 1394.02 2327.97 1381.78C2331.51 1369.64 2332.24 1360.49 2330 1351.66C2327.76 1342.83 2322.77 1335.13 2313.88 1326.14C2304.92 1317.07 2292.32 1306.99 2275.15 1293.27L2261.07 1282.02L2260.91 1281.89C2249 1272.37 2239.84 1265.06 2232.95 1258.42C2225.96 1251.7 2221.07 1245.49 2217.82 1238.08C2214.57 1230.66 2213.31 1222.87 2213.1 1213.17C2212.89 1203.61 2213.71 1191.92 2214.77 1176.7L2214.77 1176.7L2214.78 1176.5L2216.04 1158.52C2217.58 1136.6 2218.7 1120.5 2218.09 1107.77C2217.5 1095.14 2215.22 1086.25 2210.23 1078.62C2205.25 1071 2198.03 1065.34 2186.7 1059.72C2175.28 1054.05 2160.09 1048.61 2139.4 1041.21L2122.43 1035.14L2122.24 1035.07C2107.88 1029.93 2096.84 1025.98 2088.16 1021.95C2079.37 1017.86 2072.74 1013.57 2067.25 1007.62C2061.77 1001.66 2058.05 994.695 2054.7 985.597C2051.39 976.615 2048.37 965.294 2044.44 950.559L2044.39 950.362L2039.74 932.95C2034.07 911.717 2029.9 896.129 2025.2 884.279C2020.53 872.527 2015.49 864.86 2008.3 859.265C2001.11 853.669 1992.44 850.662 1979.9 849.024C1967.26 847.373 1951.13 847.159 1929.15 846.877L1911.13 846.646L1910.93 846.643C1895.68 846.448 1883.96 846.297 1874.44 845.3C1864.8 844.289 1857.14 842.387 1850.01 838.533C1842.89 834.68 1837.11 829.301 1830.99 821.782C1824.95 814.361 1818.42 804.636 1809.91 791.98L1809.91 791.976L1809.91 791.973L1809.79 791.805L1799.75 776.846C1787.49 758.603 1778.49 745.213 1770.19 735.533C1761.96 725.933 1754.7 720.318 1746.09 717.36C1737.47 714.402 1728.29 714.374 1715.9 716.895C1703.41 719.438 1688.08 724.475 1667.2 731.344L1650.08 736.976L1649.89 737.039L1649.89 737.039L1649.89 737.04C1635.4 741.806 1624.27 745.468 1614.95 747.615C1605.5 749.79 1597.63 750.481 1589.64 749.148C1581.66 747.815 1574.44 744.606 1566.21 739.482C1558.08 734.423 1548.74 727.344 1536.59 718.13L1536.43 718.01ZM1452 664.286C1431.83 664.286 1414.39 677.503 1379.52 703.937L1365.15 714.823C1340.57 733.454 1328.28 742.769 1313.7 745.203C1299.11 747.636 1284.47 742.816 1255.17 733.176L1238.05 727.544C1196.48 713.867 1175.69 707.028 1156.62 713.577C1137.54 720.126 1125.34 738.289 1100.93 774.615L1090.89 789.574C1073.68 815.177 1065.08 827.979 1052.08 835.016C1039.08 842.052 1023.66 842.25 992.816 842.646L974.797 842.878C931.038 843.439 909.158 843.72 893.242 856.108C877.327 868.496 871.683 889.637 860.396 931.919L855.749 949.33C847.794 979.131 843.816 994.031 833.803 1004.91C823.789 1015.79 809.268 1020.98 780.226 1031.37L763.258 1037.44C722.052 1052.18 701.449 1059.55 690.418 1076.43C679.387 1093.32 680.914 1115.15 683.968 1158.8L685.225 1176.78C687.378 1207.55 688.454 1222.93 682.515 1236.47C676.576 1250.01 664.528 1259.64 640.433 1278.9L626.355 1290.15C592.168 1317.47 575.074 1331.13 570.123 1350.68C565.172 1370.23 573.704 1390.38 590.767 1430.68L597.794 1447.27C609.82 1475.68 615.834 1489.88 614.613 1504.61C613.392 1519.35 605.123 1532.36 588.586 1558.4L578.923 1573.61C555.46 1610.55 543.728 1629.02 545.393 1649.12C547.059 1669.22 561.671 1685.51 590.895 1718.09L602.93 1731.5C623.526 1754.46 633.825 1765.94 637.454 1780.27C641.084 1794.6 637.49 1809.6 630.303 1839.6L626.103 1857.12C615.906 1899.68 610.807 1920.96 618.909 1939.43C627.01 1957.9 646.119 1968.56 684.336 1989.88L700.074 1998.66C727.01 2013.69 740.478 2021.2 748.565 2033.58C756.651 2045.95 758.122 2061.31 761.064 2092.01L762.782 2109.95C766.955 2153.51 769.042 2175.29 782.702 2190.13C796.362 2204.97 817.896 2208.85 860.966 2216.61L878.702 2219.8C909.058 2225.27 924.236 2228 935.903 2237.08C947.571 2246.16 953.947 2260.2 966.698 2288.29L974.148 2304.7C992.24 2344.55 1001.29 2364.47 1019.02 2374.07C1036.76 2383.67 1058.39 2380.34 1101.64 2373.7L1119.46 2370.96L1119.46 2370.96L1119.46 2370.96C1149.94 2366.27 1165.19 2363.93 1179.17 2368.73C1193.15 2373.53 1203.74 2384.74 1224.92 2407.17L1237.3 2420.27C1267.35 2452.08 1282.37 2467.99 1302.27 2471.31C1322.16 2474.63 1341.54 2464.46 1380.29 2444.13L1396.25 2435.75C1423.56 2421.42 1437.22 2414.26 1452 2414.26C1466.79 2414.26 1480.44 2421.42 1507.75 2435.75L1523.71 2444.13C1562.46 2464.46 1581.84 2474.63 1601.73 2471.31C1621.63 2467.99 1636.65 2452.08 1666.7 2420.27L1679.08 2407.17C1700.26 2384.74 1710.85 2373.53 1724.83 2368.73C1738.81 2363.93 1754.06 2366.27 1784.54 2370.96H1784.54L1802.36 2373.7C1845.61 2380.34 1867.24 2383.67 1884.98 2374.07C1902.71 2364.47 1911.76 2344.55 1929.85 2304.7L1937.3 2288.29C1950.05 2260.2 1956.43 2246.16 1968.1 2237.08C1979.76 2228 1994.94 2225.27 2025.3 2219.8L2043.04 2216.61C2086.1 2208.85 2107.64 2204.97 2121.3 2190.13C2134.96 2175.29 2137.05 2153.51 2141.22 2109.95L2142.94 2092.01C2145.88 2061.31 2147.35 2045.95 2155.44 2033.58C2163.52 2021.2 2176.99 2013.69 2203.93 1998.66L2219.67 1989.88L2219.67 1989.88C2257.88 1968.56 2276.99 1957.9 2285.09 1939.43C2293.19 1920.96 2288.09 1899.68 2277.9 1857.12L2273.7 1839.6C2266.51 1809.6 2262.92 1794.6 2266.55 1780.27C2270.18 1765.94 2280.47 1754.46 2301.07 1731.5L2313.11 1718.09C2342.33 1685.51 2356.94 1669.22 2358.61 1649.12C2360.27 1629.02 2348.54 1610.55 2325.08 1573.61L2315.41 1558.4C2298.88 1532.36 2290.61 1519.35 2289.39 1504.61C2288.17 1489.88 2294.18 1475.68 2306.21 1447.27L2313.23 1430.68C2330.3 1390.38 2338.83 1370.23 2333.88 1350.68C2328.93 1331.13 2311.83 1317.47 2277.65 1290.15L2263.57 1278.9C2239.47 1259.64 2227.42 1250.01 2221.49 1236.47C2215.55 1222.93 2216.62 1207.55 2218.78 1176.78L2220.03 1158.8C2223.09 1115.15 2224.61 1093.32 2213.58 1076.43C2202.55 1059.55 2181.95 1052.18 2140.74 1037.44L2123.77 1031.37C2094.73 1020.98 2080.21 1015.79 2070.2 1004.91C2060.18 994.031 2056.21 979.131 2048.25 949.33L2043.6 931.919C2032.32 889.637 2026.67 868.496 2010.76 856.108C1994.84 843.72 1972.96 843.439 1929.2 842.878L1911.18 842.646C1880.34 842.25 1864.92 842.052 1851.92 835.016C1838.92 827.979 1830.32 815.177 1813.12 789.574L1803.07 774.615C1778.66 738.289 1766.46 720.126 1747.38 713.577C1728.31 707.028 1707.52 713.867 1665.95 727.544L1648.83 733.176C1619.54 742.816 1604.89 747.636 1590.3 745.203C1575.72 742.769 1563.43 733.454 1538.85 714.823L1524.48 703.937C1489.61 677.503 1472.17 664.286 1452 664.286ZM1275.6 848.983L1274.46 848.608C1255.03 842.214 1240.76 837.525 1229.1 835.06C1217.54 832.614 1208.95 832.451 1200.85 834.84C1199.27 835.304 1197.72 835.837 1196.19 836.437C1188.33 839.528 1181.65 844.935 1174.03 853.966C1166.35 863.07 1157.97 875.534 1146.56 892.516L1145.89 893.511C1130.51 916.405 1122.02 929.047 1109.36 936.447C1108.15 937.152 1106.92 937.817 1105.67 938.441C1092.55 944.997 1077.32 945.191 1049.74 945.544H1049.74L1048.54 945.559C1028.09 945.822 1013.07 946.02 1001.25 947.472C989.518 948.913 981.337 951.549 974.45 956.439C973.112 957.389 971.817 958.397 970.568 959.46C964.137 964.936 959.573 972.22 955.297 983.236C950.988 994.341 947.108 1008.85 941.832 1028.62L941.523 1029.78C934.411 1056.42 930.484 1071.14 920.908 1082.25C919.996 1083.31 919.05 1084.33 918.071 1085.33C907.788 1095.79 893.447 1100.92 867.479 1110.21L866.35 1110.61C847.088 1117.5 832.947 1122.57 822.237 1127.78C811.611 1132.95 804.729 1138.1 799.803 1144.96C798.847 1146.29 797.949 1147.67 797.113 1149.08C792.808 1156.35 790.857 1164.72 790.39 1176.52C789.919 1188.43 790.961 1203.41 792.389 1223.82L792.473 1225.01C794.398 1252.53 795.462 1267.72 790.012 1281.34C789.493 1282.63 788.932 1283.91 788.33 1285.17C782.001 1298.41 770.103 1307.92 748.557 1325.13L747.62 1325.88C731.639 1338.65 719.909 1348.03 711.471 1356.44C703.1 1364.78 698.263 1371.89 695.832 1379.97C695.36 1381.55 694.957 1383.14 694.625 1384.74C692.913 1393.01 693.785 1401.57 697.177 1412.89C700.597 1424.3 706.448 1438.13 714.425 1456.97L714.892 1458.07C725.647 1483.47 731.586 1497.49 730.853 1512.14C730.784 1513.54 730.668 1514.93 730.508 1516.32C728.818 1530.89 720.652 1543.74 705.864 1567.02L705.221 1568.04C694.253 1585.3 686.204 1597.99 680.954 1608.68C675.744 1619.28 673.477 1627.58 673.804 1636.02C673.867 1637.65 674.003 1639.29 674.21 1640.92C675.276 1649.3 678.878 1657.1 685.762 1666.71C692.701 1676.39 702.727 1687.57 716.388 1702.8L717.189 1703.69C735.607 1724.22 745.778 1735.56 749.842 1749.65C750.229 1750.99 750.572 1752.35 750.87 1753.71C754.004 1768.04 750.454 1782.85 744.027 1809.67L743.747 1810.84C738.98 1830.73 735.485 1845.34 733.991 1857.16C732.508 1868.88 733.055 1877.46 736.105 1885.34C736.697 1886.86 737.356 1888.37 738.081 1889.84C741.81 1897.42 747.751 1903.63 757.38 1910.48C767.087 1917.38 780.201 1924.71 798.067 1934.67L799.114 1935.26C823.199 1948.69 836.5 1956.11 844.92 1968.12C845.722 1969.27 846.486 1970.44 847.212 1971.63C854.828 1984.17 856.28 1999.33 858.909 2026.78L859.023 2027.97C860.974 2048.34 862.412 2063.29 864.835 2074.95C867.24 2086.52 870.542 2094.46 875.984 2100.92C877.041 2102.17 878.153 2103.38 879.316 2104.54C885.304 2110.49 892.94 2114.44 904.272 2117.79C915.694 2121.17 930.475 2123.84 950.609 2127.46L951.789 2127.68C978.932 2132.56 993.921 2135.26 1005.79 2143.89C1006.91 2144.71 1008.02 2145.57 1009.09 2146.46C1020.37 2155.84 1026.66 2169.71 1038.06 2194.82L1038.56 2195.92C1047.01 2214.54 1053.23 2228.22 1059.31 2238.46C1065.34 2248.62 1071.04 2255.06 1078.28 2259.4C1079.69 2260.24 1081.13 2261.02 1082.61 2261.74C1090.21 2265.43 1098.71 2266.68 1110.52 2266.17C1122.42 2265.66 1137.26 2263.38 1157.48 2260.28L1158.67 2260.09C1185.93 2255.9 1200.98 2253.59 1215 2257.89C1216.34 2258.3 1217.66 2258.76 1218.97 2259.25C1232.68 2264.47 1243.13 2275.54 1262.07 2295.59L1262.89 2296.46C1276.94 2311.34 1287.26 2322.25 1296.34 2329.97C1305.34 2337.62 1312.82 2341.85 1321.08 2343.61C1322.69 2343.95 1324.31 2344.22 1325.93 2344.42C1334.32 2345.44 1342.77 2343.86 1353.77 2339.55C1364.86 2335.2 1378.16 2328.23 1396.28 2318.72L1397.34 2318.16C1421.76 2305.35 1435.24 2298.27 1449.91 2297.79C1451.3 2297.75 1452.7 2297.75 1454.09 2297.79C1468.76 2298.27 1482.24 2305.35 1506.66 2318.16L1507.72 2318.72C1525.84 2328.23 1539.14 2335.2 1550.23 2339.55C1561.23 2343.86 1569.68 2345.44 1578.07 2344.42C1579.69 2344.22 1581.31 2343.95 1582.92 2343.61C1591.18 2341.85 1598.66 2337.62 1607.66 2329.97C1616.74 2322.25 1627.06 2311.34 1641.11 2296.46L1641.93 2295.59C1660.87 2275.54 1671.32 2264.47 1685.03 2259.25C1686.34 2258.76 1687.66 2258.3 1689 2257.89C1703.02 2253.59 1718.07 2255.9 1745.33 2260.09L1745.33 2260.09L1745.33 2260.09L1746.52 2260.28C1766.74 2263.38 1781.58 2265.66 1793.48 2266.17C1805.29 2266.68 1813.79 2265.43 1821.39 2261.74C1822.87 2261.02 1824.31 2260.24 1825.72 2259.4C1832.96 2255.06 1838.66 2248.62 1844.69 2238.46C1850.77 2228.22 1856.99 2214.54 1865.44 2195.92L1865.94 2194.82C1877.34 2169.71 1883.63 2155.84 1894.91 2146.46C1895.98 2145.57 1897.09 2144.71 1898.22 2143.89C1910.08 2135.26 1925.07 2132.56 1952.21 2127.68L1953.39 2127.46C1973.53 2123.84 1988.31 2121.17 1999.73 2117.79C2011.06 2114.44 2018.7 2110.49 2024.68 2104.54C2025.85 2103.38 2026.96 2102.17 2028.02 2100.92C2033.46 2094.46 2036.76 2086.52 2039.17 2074.95C2041.59 2063.29 2043.03 2048.34 2044.98 2027.97L2045.09 2026.78C2047.72 1999.33 2049.17 1984.17 2056.79 1971.63C2057.51 1970.44 2058.28 1969.27 2059.08 1968.12C2067.5 1956.11 2080.8 1948.69 2104.89 1935.26L2105.93 1934.67C2123.8 1924.71 2136.91 1917.38 2146.62 1910.48C2156.25 1903.63 2162.19 1897.42 2165.92 1889.84C2166.64 1888.37 2167.3 1886.86 2167.9 1885.34C2170.95 1877.46 2171.49 1868.88 2170.01 1857.16C2168.52 1845.34 2165.02 1830.73 2160.25 1810.84L2159.97 1809.67L2159.97 1809.67L2159.97 1809.67C2153.55 1782.85 2150 1768.04 2153.13 1753.71C2153.43 1752.35 2153.77 1750.99 2154.16 1749.65C2158.22 1735.56 2168.39 1724.22 2186.81 1703.69L2186.81 1703.69L2187.61 1702.8C2201.27 1687.57 2211.3 1676.39 2218.24 1666.71C2225.12 1657.1 2228.72 1649.3 2229.79 1640.92C2230 1639.29 2230.13 1637.65 2230.2 1636.02C2230.52 1627.58 2228.26 1619.28 2223.05 1608.68C2217.8 1597.99 2209.75 1585.3 2198.78 1568.04L2198.14 1567.02C2183.35 1543.74 2175.18 1530.89 2173.49 1516.32C2173.33 1514.93 2173.22 1513.54 2173.15 1512.14C2172.41 1497.49 2178.35 1483.47 2189.11 1458.07L2189.58 1456.97C2197.55 1438.13 2203.4 1424.3 2206.82 1412.89C2210.22 1401.57 2211.09 1393.01 2209.38 1384.74C2209.04 1383.14 2208.64 1381.55 2208.17 1379.97C2205.74 1371.89 2200.9 1364.78 2192.53 1356.44C2184.09 1348.03 2172.36 1338.65 2156.38 1325.88L2155.44 1325.13L2155.44 1325.13L2155.44 1325.13C2133.9 1307.91 2122 1298.41 2115.67 1285.17C2115.07 1283.91 2114.51 1282.63 2113.99 1281.34C2108.54 1267.72 2109.6 1252.53 2111.53 1225.01L2111.61 1223.82C2113.04 1203.41 2114.08 1188.43 2113.61 1176.52C2113.14 1164.72 2111.19 1156.35 2106.89 1149.08C2106.05 1147.67 2105.15 1146.29 2104.2 1144.96C2099.27 1138.1 2092.39 1132.95 2081.76 1127.78C2071.05 1122.57 2056.91 1117.5 2037.65 1110.61L2036.52 1110.21C2010.55 1100.92 1996.21 1095.79 1985.93 1085.33C1984.95 1084.33 1984 1083.31 1983.09 1082.25C1973.52 1071.14 1969.59 1056.42 1962.48 1029.78L1962.17 1028.62C1956.89 1008.85 1953.01 994.341 1948.7 983.236C1944.43 972.22 1939.86 964.936 1933.43 959.46C1932.18 958.397 1930.89 957.389 1929.55 956.439C1922.66 951.549 1914.48 948.913 1902.75 947.472C1890.93 946.02 1875.91 945.822 1855.46 945.559L1854.26 945.544C1826.68 945.191 1811.45 944.997 1798.33 938.441C1797.08 937.817 1795.85 937.152 1794.64 936.447C1781.98 929.047 1773.49 916.405 1758.11 893.512L1757.44 892.516C1746.03 875.534 1737.65 863.07 1729.97 853.966C1722.35 844.935 1715.67 839.528 1707.81 836.437C1706.28 835.837 1704.73 835.304 1703.15 834.84C1695.05 832.451 1686.46 832.614 1674.9 835.06C1663.24 837.525 1648.97 842.214 1629.54 848.608L1628.4 848.983C1602.21 857.603 1587.74 862.364 1573.2 860.425C1571.81 860.24 1570.44 860.01 1569.07 859.735C1554.68 856.848 1542.55 847.648 1520.57 830.989L1519.61 830.264C1503.31 817.907 1491.34 808.839 1481.11 802.723C1470.97 796.656 1462.9 793.711 1454.46 793.34C1452.82 793.268 1451.18 793.268 1449.54 793.34C1441.1 793.711 1433.03 796.656 1422.89 802.723C1412.67 808.839 1400.69 817.907 1384.39 830.264L1383.43 830.989C1361.45 847.648 1349.32 856.848 1334.93 859.735C1333.56 860.01 1332.19 860.24 1330.8 860.425C1316.26 862.364 1301.79 857.603 1275.6 848.983ZM1449.36 789.344C1430.67 790.166 1414.44 802.469 1381.97 827.076C1359.07 844.431 1347.63 853.108 1334.15 855.813C1332.86 856.071 1331.57 856.287 1330.27 856.46C1316.65 858.277 1303 853.788 1275.71 844.808C1237.01 832.077 1217.66 825.711 1199.72 831.003C1198.03 831.5 1196.37 832.071 1194.73 832.715C1177.32 839.562 1165.96 856.47 1143.24 890.285C1127.22 914.134 1119.21 926.058 1107.34 932.993C1106.21 933.654 1105.05 934.278 1103.88 934.863C1091.59 941.007 1077.22 941.191 1048.49 941.56C1007.76 942.083 987.391 942.344 972.134 953.178C970.701 954.195 969.313 955.275 967.975 956.415C953.728 968.545 948.474 988.225 937.968 1027.58C930.558 1055.34 926.853 1069.22 917.878 1079.64C917.023 1080.63 916.136 1081.59 915.218 1082.53C905.581 1092.33 892.055 1097.17 865.003 1106.85C826.645 1120.57 807.467 1127.43 796.554 1142.63C795.529 1144.06 794.567 1145.53 793.671 1147.04C784.135 1163.14 785.556 1183.46 788.399 1224.1C790.404 1252.76 791.406 1267.09 786.299 1279.85C785.812 1281.07 785.286 1282.27 784.721 1283.45C778.79 1295.85 767.568 1304.82 745.123 1322.76C713.299 1348.19 697.387 1360.9 692.001 1378.82C691.496 1380.51 691.064 1382.21 690.708 1383.93C686.915 1402.26 694.857 1421.01 710.741 1458.53C721.944 1484.98 727.545 1498.21 726.858 1511.94C726.793 1513.25 726.685 1514.56 726.534 1515.86C724.951 1529.51 717.249 1541.64 701.845 1565.89C680.003 1600.28 669.082 1617.47 669.807 1636.17C669.875 1637.93 670.02 1639.68 670.242 1641.42C672.605 1659.98 686.207 1675.15 713.411 1705.47C732.597 1726.86 742.19 1737.55 745.999 1750.76C746.361 1752.02 746.683 1753.29 746.963 1754.57C749.9 1768 746.552 1781.97 739.857 1809.91C730.364 1849.52 725.618 1869.33 732.375 1886.78C733.009 1888.42 733.716 1890.03 734.492 1891.61C742.754 1908.4 760.542 1918.32 796.118 1938.17C821.208 1952.16 833.753 1959.16 841.645 1970.42C842.397 1971.49 843.113 1972.59 843.793 1973.71C850.932 1985.46 852.302 1999.76 855.041 2028.36C858.926 2068.91 860.869 2089.18 872.925 2103.49C874.058 2104.84 875.249 2106.13 876.495 2107.37C889.761 2120.57 909.807 2124.18 949.9 2131.4C978.176 2136.49 992.314 2139.04 1003.43 2147.12C1004.49 2147.89 1005.53 2148.7 1006.53 2149.53C1017.1 2158.33 1023.04 2171.41 1034.92 2197.57C1051.76 2234.66 1060.18 2253.21 1076.23 2262.83C1077.74 2263.73 1079.28 2264.57 1080.86 2265.34C1097.69 2273.51 1117.83 2270.42 1158.09 2264.23C1186.49 2259.86 1200.69 2257.68 1213.83 2261.72C1215.08 2262.1 1216.32 2262.53 1217.54 2262.99C1230.39 2267.88 1240.26 2278.32 1259.99 2299.21C1287.96 2328.83 1301.95 2343.63 1320.25 2347.52C1321.97 2347.89 1323.7 2348.18 1325.45 2348.39C1344.02 2350.65 1362.06 2341.19 1398.13 2322.26C1423.58 2308.91 1436.3 2302.24 1450.04 2301.79C1451.35 2301.75 1452.66 2301.75 1453.96 2301.79C1467.7 2302.24 1480.42 2308.91 1505.87 2322.26C1541.94 2341.19 1559.98 2350.65 1578.55 2348.39C1580.3 2348.18 1582.03 2347.89 1583.75 2347.52C1602.05 2343.63 1616.04 2328.83 1644.01 2299.21C1663.74 2278.32 1673.61 2267.88 1686.46 2262.99C1687.68 2262.53 1688.92 2262.1 1690.17 2261.72C1703.31 2257.68 1717.51 2259.86 1745.91 2264.23C1786.17 2270.42 1806.31 2273.51 1823.14 2265.34C1824.72 2264.57 1826.27 2263.73 1827.77 2262.83C1843.82 2253.21 1852.24 2234.66 1869.09 2197.57C1880.96 2171.41 1886.9 2158.33 1897.47 2149.53C1898.47 2148.7 1899.51 2147.89 1900.57 2147.12C1911.69 2139.04 1925.82 2136.49 1954.1 2131.4C1994.19 2124.18 2014.24 2120.57 2027.51 2107.37C2028.75 2106.13 2029.94 2104.84 2031.08 2103.49C2043.13 2089.18 2045.07 2068.91 2048.96 2028.36C2051.7 1999.76 2053.07 1985.46 2060.21 1973.71C2060.89 1972.59 2061.6 1971.49 2062.36 1970.42C2070.25 1959.16 2082.79 1952.16 2107.88 1938.17C2143.46 1918.32 2161.25 1908.4 2169.51 1891.61C2170.28 1890.03 2170.99 1888.42 2171.63 1886.78C2178.38 1869.33 2173.64 1849.52 2164.14 1809.91C2157.45 1781.97 2154.1 1768 2157.04 1754.57C2157.32 1753.29 2157.64 1752.02 2158 1750.76C2161.81 1737.55 2171.4 1726.86 2190.59 1705.47C2217.79 1675.15 2231.4 1659.98 2233.76 1641.42C2233.98 1639.68 2234.13 1637.93 2234.19 1636.17C2234.92 1617.47 2224 1600.28 2202.16 1565.89C2186.75 1541.64 2179.05 1529.51 2177.47 1515.86C2177.32 1514.56 2177.21 1513.25 2177.14 1511.94C2176.46 1498.21 2182.06 1484.98 2193.26 1458.53C2209.14 1421.01 2217.09 1402.26 2213.29 1383.93C2212.94 1382.21 2212.5 1380.51 2212 1378.82C2206.61 1360.9 2190.7 1348.19 2158.88 1322.76C2136.43 1304.82 2125.21 1295.85 2119.28 1283.45C2118.71 1282.27 2118.19 1281.07 2117.7 1279.85C2112.59 1267.09 2113.6 1252.76 2115.6 1224.1C2118.44 1183.46 2119.87 1163.14 2110.33 1147.04C2109.43 1145.53 2108.47 1144.06 2107.45 1142.63C2096.53 1127.43 2077.36 1120.57 2039 1106.85C2011.95 1097.17 1998.42 1092.33 1988.78 1082.53C1987.86 1081.59 1986.98 1080.63 1986.12 1079.64C1977.15 1069.22 1973.44 1055.34 1966.03 1027.58C1955.53 988.225 1950.27 968.545 1936.03 956.415C1934.69 955.275 1933.3 954.195 1931.87 953.178C1916.61 942.344 1896.24 942.083 1855.51 941.56C1826.78 941.191 1812.41 941.007 1800.12 934.863C1798.95 934.278 1797.79 933.654 1796.66 932.994C1784.79 926.058 1776.78 914.134 1760.76 890.285C1738.04 856.47 1726.68 839.562 1709.27 832.715C1707.63 832.071 1705.97 831.5 1704.29 831.003C1686.34 825.711 1666.99 832.077 1628.29 844.808C1601 853.788 1587.35 858.277 1573.73 856.46C1572.43 856.287 1571.14 856.071 1569.85 855.813C1556.38 853.108 1544.93 844.431 1522.03 827.077L1522.03 827.076C1489.56 802.469 1473.33 790.166 1454.64 789.344C1452.88 789.267 1451.12 789.267 1449.36 789.344ZM1305.31 976.217L1306.03 976.455L1306.03 976.455C1322.68 981.933 1331.86 984.953 1341.11 985.238C1349.5 985.496 1357.86 984.101 1365.71 981.132C1374.37 977.86 1382.07 972.023 1396.04 961.436L1396.64 960.976C1417.5 945.168 1427.06 938.008 1437.43 935.215C1446.97 932.643 1457.03 932.643 1466.57 935.215C1476.94 938.008 1486.5 945.168 1507.36 960.976L1507.97 961.436C1521.93 972.023 1529.63 977.86 1538.29 981.132C1546.14 984.101 1554.5 985.496 1562.89 985.238C1572.14 984.953 1581.32 981.933 1597.97 976.455L1598.69 976.217C1623.55 968.037 1634.92 964.371 1645.63 965.095C1655.49 965.761 1665 969.026 1673.2 974.558C1682.09 980.565 1688.81 990.442 1703.41 1012.17L1703.83 1012.8C1713.6 1027.35 1718.99 1035.37 1726.12 1041.27C1732.58 1046.63 1740.03 1050.66 1748.05 1053.14C1756.89 1055.88 1766.56 1056 1784.08 1056.23L1784.84 1056.24C1811.01 1056.57 1822.96 1056.8 1832.85 1060.96C1841.96 1064.79 1849.9 1070.97 1855.85 1078.86C1862.31 1087.43 1865.46 1098.95 1872.21 1124.24L1872.41 1124.97L1872.41 1124.98C1876.93 1141.91 1879.42 1151.24 1884.24 1159.14C1888.61 1166.31 1894.35 1172.54 1901.13 1177.49C1908.61 1182.95 1917.71 1186.2 1934.21 1192.11L1934.93 1192.36C1959.57 1201.18 1970.79 1205.27 1978.8 1212.42C1986.17 1219 1991.67 1227.42 1994.74 1236.82C1998.07 1247.02 1997.31 1258.94 1995.48 1285.05L1995.43 1285.81V1285.82C1994.2 1303.3 1993.53 1312.93 1995.52 1321.97C1997.33 1330.17 2000.74 1337.93 2005.54 1344.81C2010.84 1352.4 2018.39 1358.43 2032.08 1369.37L2032.08 1369.37L2032.68 1369.85C2053.12 1386.19 2062.41 1393.7 2067.66 1403.06C2072.5 1411.68 2074.97 1421.43 2074.82 1431.31C2074.65 1442.05 2070.06 1453.08 2059.86 1477.18L2059.56 1477.88C2052.72 1494.01 2048.96 1502.91 2047.91 1512.11C2046.96 1520.45 2047.66 1528.89 2049.97 1536.97C2052.52 1545.86 2057.7 1554.02 2067.09 1568.81L2067.5 1569.45C2081.53 1591.55 2087.88 1601.67 2089.81 1612.23C2091.58 1621.95 2090.75 1631.97 2087.4 1641.27C2083.76 1651.37 2075.84 1660.31 2058.36 1679.79L2057.85 1680.36L2057.85 1680.36C2046.15 1693.4 2039.69 1700.6 2035.72 1708.95C2032.11 1716.53 2030.03 1724.75 2029.59 1733.13C2029.11 1742.37 2031.37 1751.77 2035.45 1768.81L2035.63 1769.55C2041.73 1795 2044.44 1806.64 2042.84 1817.25C2041.36 1827.03 2037.32 1836.23 2031.13 1843.94C2024.41 1852.31 2014.01 1858.19 1991.15 1870.94L1990.49 1871.32C1975.18 1879.85 1966.74 1884.56 1960.27 1891.17C1954.4 1897.17 1949.76 1904.27 1946.63 1912.05C1943.17 1920.64 1942.25 1930.26 1940.58 1947.7V1947.7L1940.51 1948.46C1938.01 1974.51 1936.8 1986.4 1931.84 1995.92C1927.27 2004.68 1920.46 2012.08 1912.1 2017.36C1903.03 2023.09 1891.28 2025.28 1865.52 2029.92L1864.78 2030.05C1847.53 2033.16 1838.02 2034.87 1829.75 2039.02C1822.24 2042.79 1815.55 2047.99 1810.06 2054.34C1804.01 2061.34 1800.01 2070.14 1792.77 2086.1L1792.45 2086.79C1781.63 2110.62 1776.63 2121.47 1768.84 2128.86C1761.67 2135.66 1752.83 2140.45 1743.21 2142.73C1732.77 2145.21 1720.95 2143.46 1695.08 2139.49L1694.33 2139.37C1677.01 2136.71 1667.46 2135.24 1658.29 2136.48C1649.97 2137.61 1641.95 2140.36 1634.69 2144.58C1626.7 2149.23 1620.06 2156.26 1608.03 2169L1607.5 2169.55C1589.53 2188.58 1581.28 2197.21 1571.51 2201.67C1562.52 2205.78 1552.61 2207.44 1542.77 2206.47C1532.08 2205.42 1521.47 2199.93 1498.3 2187.77L1497.62 2187.42C1482.11 2179.28 1473.55 2174.79 1464.47 2172.98C1456.24 2171.35 1447.76 2171.35 1439.53 2172.98C1430.45 2174.79 1421.9 2179.28 1406.38 2187.42L1405.7 2187.77C1382.53 2199.93 1371.92 2205.42 1361.23 2206.47C1351.4 2207.44 1341.48 2205.78 1332.49 2201.67C1322.72 2197.21 1314.47 2188.58 1296.5 2169.55L1295.97 2169C1283.94 2156.26 1277.3 2149.23 1269.31 2144.58C1262.05 2140.36 1254.03 2137.61 1245.71 2136.48C1236.54 2135.24 1226.99 2136.71 1209.67 2139.37L1208.92 2139.49C1183.05 2143.46 1171.23 2145.21 1160.79 2142.73C1151.17 2140.45 1142.33 2135.66 1135.16 2128.86C1127.37 2121.47 1122.37 2110.62 1111.55 2086.79L1111.23 2086.1C1103.99 2070.14 1099.99 2061.34 1093.94 2054.34C1088.45 2047.99 1081.76 2042.79 1074.25 2039.02C1065.98 2034.87 1056.47 2033.16 1039.22 2030.05L1038.48 2029.92C1012.72 2025.28 1000.97 2023.09 991.9 2017.36C983.544 2012.08 976.734 2004.68 972.162 1995.92C967.197 1986.4 965.987 1974.51 963.491 1948.46L963.418 1947.7C961.747 1930.26 960.826 1920.64 957.372 1912.05C954.238 1904.27 949.602 1897.17 943.729 1891.17C937.256 1884.56 928.818 1879.85 913.515 1871.32L913.512 1871.32L912.846 1870.94C889.991 1858.19 879.593 1852.31 872.872 1843.94C866.682 1836.23 862.643 1827.03 861.165 1817.25C859.559 1806.64 862.274 1795 868.372 1769.55L868.55 1768.81C872.634 1751.77 874.886 1742.37 874.406 1733.13C873.971 1724.75 871.89 1716.53 868.283 1708.95C864.307 1700.6 857.854 1693.4 846.15 1680.36L845.641 1679.79C828.165 1660.31 820.24 1651.37 816.6 1641.27C813.249 1631.97 812.419 1621.95 814.194 1612.23C816.122 1601.67 822.467 1591.55 836.498 1569.45L836.907 1568.81C846.304 1554.02 851.485 1545.86 854.032 1536.97C856.342 1528.89 857.042 1520.45 856.091 1512.11C855.044 1502.91 851.276 1494.02 844.442 1477.88L844.145 1477.18C833.941 1453.08 829.348 1442.05 829.185 1431.31C829.034 1421.43 831.503 1411.68 836.339 1403.06C841.591 1393.7 850.879 1386.19 871.324 1369.85L871.919 1369.37C885.61 1358.43 893.159 1352.4 898.456 1344.81C903.262 1337.93 906.667 1330.17 908.476 1321.97C910.47 1312.93 909.796 1303.29 908.572 1285.81L908.519 1285.05C906.693 1258.94 905.931 1247.02 909.261 1236.82C912.328 1227.42 917.828 1219 925.201 1212.42C933.208 1205.27 944.433 1201.18 969.075 1192.36L969.793 1192.11C986.294 1186.21 995.393 1182.95 1002.87 1177.49C1009.65 1172.54 1015.39 1166.31 1019.76 1159.14C1024.58 1151.24 1027.07 1141.91 1031.59 1124.98L1031.79 1124.24C1038.54 1098.95 1041.69 1087.43 1048.15 1078.86C1054.1 1070.97 1062.04 1064.79 1071.15 1060.96C1081.04 1056.8 1092.99 1056.57 1119.16 1056.24L1119.92 1056.23C1137.44 1056 1147.11 1055.88 1155.95 1053.14C1163.97 1050.66 1171.42 1046.63 1177.88 1041.27C1185.01 1035.37 1190.4 1027.35 1200.17 1012.8L1200.59 1012.17C1215.19 990.442 1221.91 980.565 1230.8 974.558C1239 969.026 1248.51 965.761 1258.37 965.095C1269.08 964.371 1280.45 968.037 1305.31 976.217ZM1394.23 957.788C1414.8 942.195 1425.09 934.399 1436.39 931.353C1446.61 928.597 1457.39 928.597 1467.61 931.353C1478.91 934.399 1489.2 942.195 1509.77 957.788C1524.32 968.812 1531.59 974.324 1539.7 977.391C1547.06 980.174 1554.9 981.482 1562.77 981.24C1571.44 980.973 1580.1 978.121 1597.44 972.417L1597.44 972.417C1621.96 964.349 1634.22 960.315 1645.9 961.104C1656.47 961.818 1666.66 965.316 1675.43 971.243C1685.13 977.793 1692.33 988.507 1706.73 1009.94C1716.9 1025.08 1721.99 1032.66 1728.67 1038.19C1734.73 1043.22 1741.72 1047 1749.24 1049.32C1757.52 1051.89 1766.65 1052 1784.89 1052.24C1810.71 1052.57 1823.61 1052.73 1834.4 1057.27C1844.16 1061.38 1852.67 1067.99 1859.04 1076.45C1866.09 1085.8 1869.42 1098.27 1876.08 1123.21L1876.08 1123.21C1880.78 1140.84 1883.14 1149.66 1887.66 1157.06C1891.75 1163.78 1897.14 1169.62 1903.49 1174.26C1910.5 1179.38 1919.09 1182.45 1936.27 1188.6C1960.58 1197.29 1972.73 1201.64 1981.46 1209.44C1989.36 1216.49 1995.26 1225.51 1998.54 1235.58C2002.17 1246.7 2001.27 1259.58 1999.47 1285.33C1998.2 1303.54 1997.56 1312.64 1999.43 1321.11C2001.13 1328.79 2004.32 1336.07 2008.82 1342.52C2013.79 1349.63 2020.92 1355.33 2035.17 1366.72C2055.34 1382.84 2065.42 1390.9 2071.15 1401.1C2076.33 1410.34 2078.98 1420.78 2078.81 1431.37C2078.64 1443.08 2073.6 1454.96 2063.54 1478.73C2056.42 1495.54 2052.86 1503.94 2051.88 1512.56C2050.99 1520.38 2051.65 1528.3 2053.81 1535.86C2056.2 1544.2 2061.09 1551.9 2070.88 1567.31L2070.88 1567.31C2084.72 1589.1 2091.64 1600 2093.74 1611.51C2095.64 1621.93 2094.75 1632.67 2091.16 1642.63C2087.19 1653.64 2078.58 1663.25 2061.34 1682.46L2061.33 1682.46C2049.15 1696.05 2043.06 1702.84 2039.33 1710.67C2035.95 1717.78 2034 1725.48 2033.59 1733.34C2033.14 1742 2035.27 1750.87 2039.52 1768.62L2039.52 1768.62C2045.53 1793.73 2048.54 1806.28 2046.79 1817.85C2045.21 1828.32 2040.88 1838.19 2034.25 1846.45C2026.92 1855.57 2015.65 1861.86 1993.1 1874.44L1993.1 1874.44C1977.17 1883.33 1969.2 1887.77 1963.13 1893.97C1957.62 1899.59 1953.28 1906.25 1950.34 1913.55C1947.1 1921.59 1946.23 1930.68 1944.49 1948.84L1944.49 1948.84C1942.03 1974.54 1940.8 1987.39 1935.39 1997.77C1930.49 2007.16 1923.19 2015.08 1914.24 2020.74C1904.34 2026.99 1891.64 2029.28 1866.23 2033.85C1848.27 2037.09 1839.29 2038.71 1831.54 2042.6C1824.51 2046.13 1818.24 2051.01 1813.09 2056.96C1807.41 2063.52 1803.64 2071.83 1796.1 2088.45L1796.09 2088.45C1785.42 2111.95 1780.09 2123.7 1771.6 2131.76C1763.92 2139.05 1754.44 2144.18 1744.14 2146.62C1732.75 2149.32 1719.99 2147.36 1694.47 2143.44L1694.47 2143.44C1676.43 2140.67 1667.42 2139.28 1658.82 2140.44C1651.02 2141.5 1643.51 2144.08 1636.71 2148.04C1629.21 2152.4 1622.94 2159.03 1610.42 2172.29L1610.41 2172.3C1592.69 2191.06 1583.82 2200.45 1573.18 2205.31C1563.54 2209.71 1552.92 2211.49 1542.38 2210.45C1530.73 2209.31 1519.3 2203.31 1496.44 2191.32L1496.44 2191.32C1480.28 2182.84 1472.2 2178.6 1463.69 2176.91C1455.97 2175.37 1448.03 2175.37 1440.31 2176.91C1431.8 2178.6 1423.72 2182.84 1407.56 2191.32C1384.7 2203.31 1373.27 2209.31 1361.62 2210.45C1351.08 2211.49 1340.46 2209.71 1330.82 2205.31C1320.18 2200.45 1311.32 2191.06 1293.59 2172.3L1293.59 2172.3C1281.06 2159.03 1274.79 2152.4 1267.3 2148.04C1260.49 2144.08 1252.98 2141.5 1245.18 2140.44C1236.58 2139.28 1227.57 2140.67 1209.53 2143.44L1209.53 2143.44C1184.01 2147.36 1171.25 2149.32 1159.86 2146.62C1149.56 2144.18 1140.09 2139.05 1132.4 2131.76C1123.91 2123.7 1118.58 2111.95 1107.91 2088.45C1100.36 2071.83 1096.59 2063.52 1090.91 2056.96C1085.76 2051.01 1079.49 2046.13 1072.46 2042.6C1064.71 2038.71 1055.73 2037.09 1037.77 2033.85L1037.77 2033.85C1012.36 2029.28 999.658 2026.99 989.764 2020.74C980.81 2015.08 973.514 2007.16 968.615 1997.77C963.202 1987.39 961.971 1974.54 959.509 1948.84C957.769 1930.68 956.898 1921.59 953.661 1913.55C950.723 1906.25 946.377 1899.59 940.871 1893.97C934.804 1887.77 926.835 1883.33 910.898 1874.44L910.897 1874.44C888.353 1861.86 877.081 1855.57 869.753 1846.45C863.121 1838.19 858.794 1828.32 857.21 1817.85C855.459 1806.28 858.467 1793.73 864.482 1768.62C868.735 1750.87 870.861 1742 870.411 1733.34C870.003 1725.48 868.053 1717.78 864.671 1710.67C860.945 1702.84 854.851 1696.05 842.664 1682.46C825.425 1663.25 816.806 1653.64 812.837 1642.63C809.247 1632.67 808.357 1621.93 810.259 1611.51C812.361 1600 819.281 1589.1 833.122 1567.31C842.907 1551.9 847.799 1544.2 850.186 1535.86C852.352 1528.3 853.008 1520.38 852.117 1512.56C851.135 1503.94 847.577 1495.54 840.461 1478.73C830.396 1454.96 825.363 1443.08 825.185 1431.37C825.024 1420.78 827.669 1410.34 832.851 1401.1C838.577 1390.9 848.66 1382.84 868.827 1366.72L868.827 1366.72C883.084 1355.33 890.212 1349.63 895.177 1342.52C899.682 1336.07 902.874 1328.79 904.57 1321.11C906.439 1312.64 905.802 1303.54 904.529 1285.33C902.728 1259.58 901.827 1246.7 905.458 1235.58C908.744 1225.51 914.637 1216.49 922.537 1209.44C931.268 1201.64 943.421 1197.29 967.726 1188.6L967.727 1188.6C984.911 1182.45 993.503 1179.38 1000.51 1174.26C1006.86 1169.62 1012.25 1163.78 1016.35 1157.06C1020.86 1149.66 1023.22 1140.84 1027.92 1123.21C1034.58 1098.27 1037.91 1085.8 1044.96 1076.45C1051.33 1067.99 1059.84 1061.38 1069.6 1057.27C1080.39 1052.73 1093.29 1052.57 1119.11 1052.24H1119.11C1137.36 1052 1146.48 1051.89 1154.76 1049.32C1162.28 1047 1169.27 1043.22 1175.33 1038.19C1182.01 1032.66 1187.1 1025.08 1197.27 1009.94L1197.27 1009.94C1211.67 988.507 1218.87 977.793 1228.57 971.243C1237.34 965.316 1247.53 961.818 1258.1 961.104C1269.78 960.315 1282.04 964.349 1306.56 972.417C1323.9 978.121 1332.56 980.973 1341.23 981.24C1349.1 981.482 1356.94 980.174 1364.3 977.391C1372.41 974.324 1379.68 968.812 1394.23 957.788Z" fill="url(#paint0_linear_921_19205)"/>
<rect x="492" y="1034" width="1920" height="540" fill="url(#paint1_linear_921_19205)"/>
<rect width="1920" height="540" transform="matrix(1 0 0 -1 512 2258)" fill="url(#paint2_linear_921_19205)"/>
<g opacity="0.7">
<g opacity="0.7" filter="url(#filter0_f_921_19205)">
<ellipse cx="2199.5" cy="940.5" rx="340.5" ry="342.5" fill="#7534FF"/>
</g>
<g opacity="0.8" filter="url(#filter1_f_921_19205)">
<ellipse cx="1630.5" cy="1023" rx="166.5" ry="168" fill="#F249C8"/>
</g>
<g opacity="0.8" filter="url(#filter2_f_921_19205)">
<ellipse cx="1044" cy="656" rx="659" ry="271" fill="#E64545"/>
</g>
<g opacity="0.8" filter="url(#filter3_f_921_19205)">
<ellipse cx="624" cy="940.5" rx="209" ry="251.5" fill="#0B63E5"/>
</g>
<g opacity="0.8" filter="url(#filter4_f_921_19205)">
<ellipse cx="824" cy="940.5" rx="76" ry="138.5" fill="#9DC1F5"/>
</g>
<g opacity="0.8" filter="url(#filter5_f_921_19205)">
<ellipse cx="1171" cy="995" rx="240" ry="111" fill="#FFC759"/>
</g>
</g>
<defs>
<filter id="filter0_f_921_19205" x="1474" y="213" width="1451" height="1455" filterUnits="userSpaceOnUse" color-interpolation-filters="sRGB">
<feFlood flood-opacity="0" result="BackgroundImageFix"/>
<feBlend mode="normal" in="SourceGraphic" in2="BackgroundImageFix" result="shape"/>
<feGaussianBlur stdDeviation="192.5" result="effect1_foregroundBlur_921_19205"/>
</filter>
<filter id="filter1_f_921_19205" x="1079" y="470" width="1103" height="1106" filterUnits="userSpaceOnUse" color-interpolation-filters="sRGB">
<feFlood flood-opacity="0" result="BackgroundImageFix"/>
<feBlend mode="normal" in="SourceGraphic" in2="BackgroundImageFix" result="shape"/>
<feGaussianBlur stdDeviation="192.5" result="effect1_foregroundBlur_921_19205"/>
</filter>
<filter id="filter2_f_921_19205" x="0" y="0" width="2088" height="1312" filterUnits="userSpaceOnUse" color-interpolation-filters="sRGB">
<feFlood flood-opacity="0" result="BackgroundImageFix"/>
<feBlend mode="normal" in="SourceGraphic" in2="BackgroundImageFix" result="shape"/>
<feGaussianBlur stdDeviation="192.5" result="effect1_foregroundBlur_921_19205"/>
</filter>
<filter id="filter3_f_921_19205" x="30" y="304" width="1188" height="1273" filterUnits="userSpaceOnUse" color-interpolation-filters="sRGB">
<feFlood flood-opacity="0" result="BackgroundImageFix"/>
<feBlend mode="normal" in="SourceGraphic" in2="BackgroundImageFix" result="shape"/>
<feGaussianBlur stdDeviation="192.5" result="effect1_foregroundBlur_921_19205"/>
</filter>
<filter id="filter4_f_921_19205" x="363" y="417" width="922" height="1047" filterUnits="userSpaceOnUse" color-interpolation-filters="sRGB">
<feFlood flood-opacity="0" result="BackgroundImageFix"/>
<feBlend mode="normal" in="SourceGraphic" in2="BackgroundImageFix" result="shape"/>
<feGaussianBlur stdDeviation="192.5" result="effect1_foregroundBlur_921_19205"/>
</filter>
<filter id="filter5_f_921_19205" x="546" y="499" width="1250" height="992" filterUnits="userSpaceOnUse" color-interpolation-filters="sRGB">
<feFlood flood-opacity="0" result="BackgroundImageFix"/>
<feBlend mode="normal" in="SourceGraphic" in2="BackgroundImageFix" result="shape"/>
<feGaussianBlur stdDeviation="192.5" result="effect1_foregroundBlur_921_19205"/>
</filter>
<linearGradient id="paint0_linear_921_19205" x1="492" y1="1034" x2="2411.98" y2="1039.41" gradientUnits="userSpaceOnUse">
<stop stop-color="#CEE0FA"/>
<stop offset="0.255208" stop-color="white"/>
<stop offset="0.510417" stop-color="white"/>
<stop offset="0.776042" stop-color="white"/>
<stop offset="1" stop-color="#CEE0FA"/>
</linearGradient>
<linearGradient id="paint1_linear_921_19205" x1="1452" y1="1034" x2="1452" y2="1574" gradientUnits="userSpaceOnUse">
<stop stop-color="white"/>
<stop offset="1" stop-color="white" stop-opacity="0"/>
</linearGradient>
<linearGradient id="paint2_linear_921_19205" x1="960" y1="0" x2="960" y2="540" gradientUnits="userSpaceOnUse">
<stop stop-color="white"/>
<stop offset="1" stop-color="white" stop-opacity="0"/>
</linearGradient>
</defs>
</svg>
