<svg width="603" height="603" viewBox="0 0 603 603" fill="none" xmlns="http://www.w3.org/2000/svg">
<path d="M230.346 445.527L263.119 431.778L258.476 406.874L277.923 423.065L297.219 403.769L302.435 429.306L337.921 423.065L319.771 451.888L329.479 475.677L291.43 456.109L277.682 489.154L268.697 453.185L230.346 445.527Z" fill="#FC5252"/>
<path d="M281.782 485.958C281.752 485.958 281.752 485.958 281.722 485.958C281.541 485.928 281.39 485.777 281.33 485.596L275.269 456.893L239.361 476.129C239.18 476.219 238.969 476.189 238.818 476.038C238.667 475.888 238.637 475.677 238.758 475.496L258.084 442.15L258.868 442.602L240.356 474.561L275.39 455.778C275.511 455.717 275.661 455.717 275.782 455.778C275.903 455.838 275.993 455.959 276.023 456.079L281.963 484.119L298.786 451.195C298.907 450.984 299.148 450.893 299.389 450.984L326.193 463.134L321.128 437.959C321.097 437.808 321.128 437.688 321.218 437.567C321.308 437.446 321.459 437.416 321.58 437.416L343.74 439.044L343.68 439.949L322.123 438.351L327.248 463.798C327.278 463.978 327.218 464.129 327.097 464.25C326.977 464.37 326.796 464.37 326.615 464.31L299.389 451.979L282.204 485.717C282.113 485.867 281.963 485.958 281.782 485.958Z" fill="#121127"/>
<path d="M89.2138 348.353L112.369 337.017L93.1936 333.248L89.2138 310.394L77.2443 337.017L57.7975 323.178L64.0386 342.986L44.8632 349.589L63.0436 355.077L59.305 379.98L76.7619 361.197L99.6758 368.523L89.2138 348.353Z" fill="#FC5252"/>
<path d="M51.9788 389.99C51.8582 389.99 51.7677 389.96 51.6773 389.87C51.5265 389.719 51.4964 389.508 51.5869 389.327L71.5763 351.971L42.3609 344.494C42.18 344.434 42.0293 344.283 42.0293 344.072C42.0293 343.861 42.1499 343.68 42.3308 343.62L75.7671 331.56L67.0538 300.083C66.9935 299.902 67.0839 299.691 67.2347 299.57C67.4156 299.45 67.6266 299.48 67.7774 299.601L92.5607 320.796L91.9577 321.489L68.3201 301.259L76.7319 331.71C76.7922 331.952 76.6716 332.163 76.4606 332.253L44.0192 343.951L72.3602 351.217C72.4808 351.248 72.6014 351.338 72.6617 351.459C72.722 351.579 72.722 351.73 72.6315 351.851L53.1546 388.272L82.4906 370.694L82.9428 371.478L52.22 389.9C52.1295 389.96 52.0391 389.99 51.9788 389.99Z" fill="#121127"/>
<path d="M538.057 84.1787L516.379 98.4095L523.073 103.324C458.823 165.734 361.288 202.789 290.254 216.748L290.435 217.623C333.339 209.181 377.207 194.618 417.337 175.503C438.894 165.252 459.034 153.795 477.214 141.464C494.611 129.675 510.289 117.042 523.856 103.837L531.726 109.595L538.057 84.1787Z" fill="#121127"/>
<path d="M421.768 519.936C419.959 519.936 418.15 519.635 416.372 519.062C408.442 516.469 400.784 508.329 393.608 494.912C388.272 484.932 385.227 475.616 385.197 475.526L386.071 475.254C386.191 475.616 398.282 512.218 416.673 518.248C422.13 520.027 427.678 518.942 433.135 515.022C442.572 508.238 447.155 494.46 447.999 480.018C442.783 477.124 437.597 473.325 432.864 468.893C424.422 460.993 418.573 452.099 417.216 445.044C416.221 439.858 417.608 435.758 421.226 433.165C427.768 428.492 434.281 429.939 439.527 437.295C445.738 445.948 449.446 461.687 448.994 477.425C448.964 478.149 448.934 478.842 448.903 479.536C452.913 481.706 457.074 483.395 461.205 484.42C468.411 486.199 478.481 486.44 485.475 477.576C491.325 470.189 494.098 459.968 493.525 448.119C491.023 447.727 488.701 447.094 486.651 446.34C478.903 443.567 471.365 438.079 465.396 430.934C459.848 424.331 456.2 416.914 455.356 410.613C454.632 405.095 456.049 400.904 459.516 398.492C464.521 394.965 470.762 396.744 477.094 403.467C484.631 411.457 490.842 424.934 493.345 438.622C493.887 441.607 494.249 444.501 494.4 447.335C502.661 448.451 512.882 446.702 523.284 437.115C537.333 424.15 540.74 409.256 538.72 396.171C532.751 398.04 526.389 398.372 520.088 397.105C506.701 394.392 495.274 384.684 494.068 375.006C493.345 369.247 496.48 364.393 502.872 361.317C511.284 357.277 523.012 363.036 531.394 375.367C535.464 381.337 538.178 388.091 539.384 394.965C547.404 392.191 556.298 385.98 563.805 372.985L564.589 373.438C558.77 383.508 551.534 390.593 543.062 394.482C541.916 395.025 540.74 395.477 539.534 395.899C539.987 398.914 540.167 401.929 540.047 404.944C539.504 417.155 533.926 428.522 523.887 437.778C513.304 447.546 502.872 449.355 494.46 448.27C495.003 460.24 492.169 470.641 486.229 478.149C480.44 485.445 471.727 487.917 461.024 485.294C457.104 484.329 453.004 482.701 448.873 480.5C447.848 496.721 442.361 509.444 433.617 515.746C429.728 518.519 425.748 519.936 421.768 519.936ZM428.703 431.326C426.623 431.326 424.301 432.049 421.768 433.858C418.392 436.27 417.186 439.949 418.12 444.833C420.171 455.476 433.014 470.521 448.059 478.993C448.843 463.164 445.225 446.702 438.833 437.778C436.482 434.491 433.075 431.326 428.703 431.326ZM464.943 397.618C463.315 397.618 461.657 398.07 460.059 399.216C456.049 402.02 455.778 406.904 456.26 410.492C457.888 422.612 470.611 439.557 486.983 445.466C488.943 446.19 491.144 446.793 493.525 447.154C493.345 444.441 493.013 441.637 492.5 438.743C490.028 425.205 483.908 411.909 476.491 404.04C473.898 401.326 469.556 397.618 464.943 397.618ZM508.691 360.865C506.761 360.865 504.952 361.257 503.294 362.071C497.174 364.996 494.309 369.428 494.973 374.855C496.118 384.171 507.244 393.518 520.269 396.171C524.158 396.955 530.942 397.618 538.57 395.176C537.303 387.91 534.349 381.247 530.67 375.789C526.841 370.151 522.047 365.659 517.133 363.126C514.208 361.649 511.344 360.865 508.691 360.865Z" fill="#121127"/>
<path d="M563.684 388.634L562.78 388.573L563.715 374.011L549.906 382.121L549.454 381.337L563.986 372.775C564.137 372.684 564.318 372.684 564.438 372.775C564.589 372.865 564.649 373.016 564.649 373.197L563.684 388.634Z" fill="#121127"/>
<path d="M573.875 147.675L533.354 150.358L537.424 156.629L464.672 203.814L478.119 224.497L550.841 177.312L554.911 183.583L573.875 147.675Z" fill="#FFA3A3"/>
<path d="M472.27 221.06C472.24 221.06 472.209 221.06 472.179 221.06C472.059 221.03 471.968 220.969 471.908 220.849L458.491 200.166C458.34 199.955 458.401 199.683 458.612 199.533L530.972 152.589L527.143 146.71C527.052 146.589 527.052 146.408 527.113 146.258C527.173 146.107 527.324 146.016 527.474 146.016L567.996 143.333C568.177 143.333 568.328 143.393 568.418 143.544C568.509 143.695 568.509 143.846 568.448 143.996L549.514 179.905C549.454 180.056 549.303 180.146 549.122 180.146C548.971 180.146 548.821 180.086 548.73 179.935L544.901 174.056L472.541 220.999C472.451 221.03 472.36 221.06 472.27 221.06ZM459.456 200.045L472.39 219.974L544.75 173.031C544.841 172.97 544.961 172.94 545.082 172.97C545.203 173.001 545.293 173.061 545.353 173.182L549.032 178.789L567.242 144.268L528.319 146.83L531.967 152.468C532.027 152.559 532.057 152.68 532.027 152.8C531.997 152.921 531.937 153.011 531.816 153.071L459.456 200.045Z" fill="#121127"/>
<path d="M149.604 456.953L109.053 454.511L112.309 461.235L34.2504 498.952L44.9536 521.143L123.042 483.455L126.298 490.179L149.604 456.953Z" fill="#FFA3A3"/>
<path d="M39.6473 517.012C39.4664 517.012 39.3157 516.922 39.2252 516.771L28.4918 494.55C28.4315 494.43 28.4315 494.309 28.4617 494.219C28.4918 494.098 28.5823 494.008 28.7029 493.947L106.369 456.441L103.324 450.109C103.264 449.959 103.264 449.808 103.354 449.657C103.445 449.506 103.595 449.446 103.746 449.446L144.268 451.888C144.419 451.888 144.569 452.009 144.66 452.129C144.72 452.28 144.72 452.461 144.63 452.582L121.324 485.837C121.233 485.958 121.082 486.048 120.932 486.018C120.781 486.018 120.63 485.897 120.57 485.777L117.525 479.445L39.8584 516.952C39.7981 516.982 39.7076 517.012 39.6473 517.012ZM29.5471 494.55L39.8885 515.957L117.555 478.45C117.766 478.33 118.037 478.45 118.158 478.661L121.082 484.691L143.484 452.732L104.53 450.411L107.455 456.441C107.575 456.652 107.455 456.923 107.244 457.044L29.5471 494.55Z" fill="#121127"/>
<path d="M265.622 89.0027L225.161 85.656L228.266 92.4699L149.333 128.379L159.554 150.81L238.487 114.902L241.562 121.715L265.622 89.0027Z" fill="#381DD8"/>
<path d="M153.403 146.016C153.343 146.016 153.283 146.016 153.253 145.986C153.132 145.956 153.042 145.865 153.012 145.745L142.791 123.283C142.7 123.042 142.791 122.801 143.002 122.68L221.512 86.9524L218.618 80.5606C218.558 80.4099 218.558 80.2591 218.648 80.1084C218.739 79.9878 218.889 79.8973 219.07 79.9275L259.531 83.2741C259.682 83.2741 259.833 83.3947 259.893 83.5455C259.954 83.6962 259.954 83.8771 259.833 83.9977L235.773 116.71C235.683 116.831 235.532 116.922 235.351 116.891C235.2 116.861 235.05 116.771 234.989 116.62L232.095 110.228L153.584 145.956C153.524 145.986 153.464 146.016 153.403 146.016ZM143.786 123.343L153.615 144.961L232.125 109.233C232.246 109.173 232.366 109.173 232.457 109.233C232.577 109.263 232.668 109.354 232.698 109.474L235.472 115.565L258.627 84.1183L219.733 80.8923L222.507 86.9826C222.598 87.2238 222.507 87.465 222.296 87.5856L143.786 123.343Z" fill="#121127"/>
<path d="M142.398 304.334L132.208 274.003L190.397 271.32L142.398 304.334Z" fill="#FFA3A3"/>
<path d="M417.728 416.854L390.021 382.061L464.762 350.946L417.728 416.854Z" fill="#381DD8"/>
<path d="M376.604 87.9475L366.714 56.4709L426.713 54.9031L376.604 87.9475Z" fill="#FC5252"/>
<path d="M566.669 240.898L555.182 264.174L564.559 265.139C564.137 269.33 560.549 300.083 543.454 339.971C526.57 379.408 492.621 436.09 426.954 482.159C361.257 528.228 290.556 537.363 242.798 536.911C198.598 536.519 165.403 528.047 156.418 525.514C156.87 524.248 157.142 522.861 157.142 521.414C157.142 514.721 151.715 509.294 145.022 509.294C138.328 509.294 132.901 514.721 132.901 521.414C132.901 528.107 138.328 533.534 145.022 533.534C149.936 533.534 154.187 530.58 156.087 526.359C165.011 528.891 198.357 537.394 242.768 537.816C243.883 537.816 245.029 537.846 246.145 537.846C275.42 537.846 303.942 534.318 330.896 527.323C365.9 518.248 398.402 503.294 427.497 482.912C456.592 462.501 481.948 438.351 502.872 411.095C519.605 389.297 533.565 365.478 544.358 340.303C561.453 300.354 565.071 269.511 565.493 265.229L574.086 266.104L566.669 240.898Z" fill="#121127"/>
<path d="M250.516 316.394C250.516 316.394 255.552 331.499 260.858 336.112C264.325 334.755 317.359 314.133 317.359 314.133L370.122 293.691C370.122 293.691 386.161 203.784 365.298 196.88C348.263 191.241 329.932 194.558 310.123 233.662C290.314 272.737 274.938 309.279 250.516 316.394Z" fill="#381DD8"/>
<path d="M264.476 334.695V310.846V308.555C264.325 308.676 264.204 308.796 264.054 308.917V310.846V334.846C264.204 334.785 264.325 334.725 264.476 334.695Z" fill="white"/>
<path d="M290.224 310.846V272.857C290.073 273.129 289.953 273.37 289.802 273.641V310.846V324.836C289.953 324.776 290.073 324.715 290.224 324.685V310.846Z" fill="white"/>
<path d="M277.35 329.66V310.847V294.053C277.199 294.264 277.078 294.445 276.928 294.656V310.847V329.841C277.078 329.781 277.199 329.72 277.35 329.66Z" fill="white"/>
<path d="M303.098 310.847V247.652C302.947 247.923 302.827 248.225 302.676 248.496V310.847V319.831C302.827 319.771 302.947 319.711 303.098 319.68V310.847Z" fill="white"/>
<path d="M315.55 223.683V310.816V314.796C315.701 314.736 315.852 314.675 315.972 314.645V310.846V222.989C315.852 223.23 315.701 223.472 315.55 223.683Z" fill="white"/>
<path d="M251.18 318.294C251.3 318.625 251.451 319.017 251.602 319.439V316.062C251.451 316.123 251.33 316.153 251.18 316.183V318.294Z" fill="white"/>
<path d="M328.424 309.821L328.846 309.67V206.045C328.695 206.196 328.575 206.316 328.424 206.467V309.821Z" fill="white"/>
<path d="M367.046 294.867L367.469 294.716V197.995C367.318 197.905 367.197 197.814 367.046 197.724V294.867Z" fill="white"/>
<path d="M341.298 304.847L341.72 304.696V197.06C341.569 197.121 341.449 197.181 341.298 197.241V304.847Z" fill="white"/>
<path d="M354.172 299.842L354.594 299.691V194.769C354.444 194.769 354.323 194.769 354.172 194.739V299.842Z" fill="white"/>
<path d="M290.736 185C290.736 185 253.652 222.356 247.2 256.034C242.647 279.762 246.205 305.269 250.516 316.364C260.044 315.761 284.646 313.982 297.189 304.425C300.384 302.495 302.706 300.927 302.706 300.927C302.706 300.927 331.047 337.137 388.694 330.263C388.694 330.263 381.367 324.143 382.423 312.716C383.327 303.038 389.99 299.962 389.99 299.962C389.99 299.962 349.288 306.445 320.977 255.431C317.902 249.883 314.796 244.275 312.897 237.612C310.515 229.291 309.218 219.402 303.158 207.281C308.404 203.151 333.369 197.844 349.529 196.005C358.423 194.98 363.76 196.367 363.76 196.367L386.975 179.242L419.266 158.559L410.522 137.152C410.522 137.152 306.414 183.553 300.354 185.362C293.812 187.262 290.736 185 290.736 185Z" fill="#FC5252"/>
<path d="M375.006 331.137C375.247 331.137 375.458 331.137 375.699 331.137V326.525V313.53H382.393C382.393 313.289 382.423 313.078 382.453 312.836H375.699V299.842V299.329C375.458 299.299 375.247 299.239 375.006 299.209V299.842V312.836H362.011H349.016V299.842V287.963C348.775 287.812 348.564 287.631 348.323 287.48V299.842V312.836H335.328H322.334V299.842V286.847H335.328H347.449C347.147 286.636 346.846 286.395 346.544 286.154H335.328H322.334V273.159V260.164H323.781C323.63 259.923 323.51 259.712 323.359 259.471H322.334V257.752C322.093 257.36 321.882 256.968 321.64 256.546V259.471H308.646H295.651V246.476V233.482H308.646H311.872C311.811 233.24 311.751 233.029 311.691 232.788H308.646H295.651V219.794V206.799H304.033C304.395 206.558 304.817 206.347 305.299 206.105H295.651V193.111V186.176C295.41 186.176 295.169 186.176 294.958 186.176V193.111V206.105H281.903H272.797C272.616 206.347 272.436 206.558 272.285 206.799H281.933H294.927V219.794V232.758H281.903H268.908V219.763V211.352C268.667 211.683 268.456 211.985 268.215 212.316V219.763V232.758H255.672C255.552 232.999 255.431 233.21 255.31 233.451H268.184V246.446V259.441H255.19H246.597C246.567 259.682 246.537 259.893 246.476 260.134H255.19H268.184V273.129V286.124H255.19H245.21C245.21 286.365 245.24 286.576 245.24 286.817H255.19H268.184V299.812V312.806H255.19H249.31C249.371 313.047 249.461 313.259 249.522 313.5H255.19H268.184V314.525C268.426 314.495 268.637 314.465 268.878 314.404V313.5H273.853C274.908 313.289 275.963 313.047 277.018 312.806H268.878V299.812V286.817H281.903H294.897V299.812V305.992C295.138 305.842 295.35 305.691 295.591 305.54V299.781V286.787H308.585H321.58V299.781V312.776H315.761C316.063 313.017 316.394 313.228 316.726 313.47H321.58V316.665C321.821 316.816 322.032 316.937 322.273 317.088V313.47H335.268H348.263V326.464V327.881C348.504 327.942 348.715 328.002 348.956 328.062V326.464V313.47H361.951H374.945V326.464V331.137H375.006ZM294.897 273.129V286.124H281.903H268.908V273.129V260.134H281.903H294.897V273.129ZM294.897 246.446V259.441H281.903H268.908V246.446V233.451H281.903H294.897V246.446ZM321.61 273.129V286.124H308.615H295.621V273.129V260.134H308.615H321.61V273.129Z" fill="white"/>
<path d="M401.688 169.775L402.382 169.322V166.307V153.313H415.377H417.155L416.884 152.619H415.407H402.412V140.71C402.201 140.8 401.96 140.921 401.719 141.011V152.589H388.724H375.729V152.529C375.187 152.77 374.614 153.011 374.071 153.252H375.036V166.247V179.242H362.041H349.047V166.247V164.317C348.805 164.408 348.594 164.528 348.353 164.619V166.247V179.242H335.358H322.364V175.985C322.123 176.076 321.912 176.197 321.67 176.287V179.242H314.857C314.314 179.483 313.771 179.694 313.259 179.935H321.67V192.93V200.829C321.912 200.769 322.123 200.708 322.364 200.678V192.93V179.935H335.358H348.353V192.93V196.035C348.594 196.005 348.805 195.975 349.047 195.945V192.93V179.935H362.041H375.036V187.955L375.729 187.442V179.905H385.92L386.855 179.212H375.729V166.217V153.222H388.724H401.719V166.217V169.775H401.688Z" fill="white"/>
<path d="M303.158 207.281C303.158 207.281 313.289 195.674 324.384 193.081C336.685 190.216 344.675 196.94 344.675 196.94C344.675 196.94 323.901 203.301 311.66 230.286C310.304 223.14 303.158 207.281 303.158 207.281Z" fill="#381DD8"/>
<path d="M328.424 207.04C328.575 206.919 328.695 206.799 328.846 206.678V192.448C328.695 192.448 328.575 192.478 328.424 192.478V207.04Z" fill="white"/>
<path d="M341.298 198.327C341.449 198.266 341.569 198.206 341.72 198.116V195.07C341.569 195.01 341.449 194.92 341.298 194.859V198.327Z" fill="white"/>
<path d="M315.55 222.809C315.701 222.567 315.821 222.326 315.972 222.115V196.638C315.821 196.729 315.701 196.819 315.55 196.88V222.809Z" fill="white"/>
<path d="M497.988 239.843C497.988 239.813 497.988 239.813 497.988 239.843C497.958 239.783 497.958 239.723 497.927 239.692C497.897 239.662 497.867 239.632 497.837 239.602C497.837 239.602 497.837 239.602 497.807 239.602C497.777 239.572 497.716 239.542 497.686 239.542C497.626 239.542 497.596 239.511 497.535 239.511C497.505 239.511 497.475 239.511 497.475 239.511L382.845 265.44C384.352 255.551 385.679 245.421 385.679 240.748C385.679 230.647 384.141 212.165 373.8 201.914C371.147 199.291 368.071 197.362 364.604 196.186C375.307 186.206 429.909 151.443 437.567 149.031C439.859 148.308 442.059 147.735 444.17 147.162C450.803 145.383 455.627 144.087 455.416 140.71C455.386 140.228 455.145 139.805 454.722 139.413C454.029 138.841 452.883 138.418 451.346 138.177C453.908 137.062 457.165 134.74 458.883 131.966C460.059 130.097 460.361 128.258 459.818 126.57C459.305 124.941 458.401 123.946 457.195 123.555C456.773 123.434 456.351 123.374 455.928 123.404C460.391 120.389 464.582 117.434 466.903 115.293C468.2 114.087 468.682 112.64 468.169 111.374C467.777 110.379 466.783 109.746 465.667 109.746C459.155 109.836 320.495 172.247 305.631 178.94C305.812 178.458 305.962 177.975 306.083 177.493C306.626 175.141 306.837 170.709 302.314 166.729C304.606 165.342 305.962 159.373 298.696 158.74C291.943 158.137 282.867 165.704 282.385 172.609C281.933 178.85 285.491 182.226 286.636 183.191C285.521 184.186 271.983 196.276 259.35 215.301C245.24 216.929 232.035 218.045 219.764 218.768C222.959 213.281 225.1 207.763 225.552 203.542C226.035 199.291 224.738 196.729 221.904 196.306C218.467 195.794 215.874 198.417 214.789 203.482C213.824 207.884 214.156 213.552 215.543 219.009C202.488 219.673 190.518 219.854 179.574 219.703C181.865 216.417 183.644 213.07 184.759 209.934C186.9 203.874 186.086 199.533 182.468 197.995C180.327 197.09 178.368 197.392 176.83 198.839C173.393 202.095 172.368 210.929 174.026 219.582C158.83 219.19 145.745 218.165 134.741 216.809C135.796 215.391 136.761 213.974 137.575 212.557C141.313 206.075 141.524 200.859 138.147 198.176C136.248 196.668 134.168 196.487 132.087 197.633C127.806 200.015 124.52 207.402 123.766 215.271C121.505 214.909 119.334 214.547 117.314 214.185C107.997 212.497 100.309 210.598 94.1586 208.819C98.5304 200.859 104.078 194.226 104.168 194.106L103.475 193.533C103.053 194.015 97.5354 200.618 93.224 208.547C80.7419 204.839 74.8928 201.613 74.8023 201.553L74.3501 202.337C74.4405 202.397 80.2896 205.623 92.7717 209.361C89.4854 215.603 87.0432 222.537 88.4301 227.964C89.3045 231.461 91.7165 233.994 95.5757 235.502C97.5354 236.285 99.7062 236.647 101.998 236.647C107.153 236.647 113.033 234.718 119.123 230.949C121.052 229.773 122.952 228.416 124.761 226.939C126.841 233.994 131.695 238.908 138.75 240.959C140.771 241.562 142.881 241.833 145.052 241.833C152.047 241.833 159.644 238.788 167.031 232.969C170.046 230.617 172.88 227.843 175.413 224.919C175.473 225.07 175.533 225.251 175.564 225.401C177.403 230.617 181.865 239.511 191.121 240.235C191.513 240.265 191.905 240.295 192.297 240.295C201.312 240.295 210.417 232.366 216.809 223.2C216.99 223.683 217.171 224.165 217.382 224.617C220.547 232.185 225.583 237.612 231.703 240.114L221.663 240.808L221.723 241.712L233.964 240.868C234.115 240.868 234.266 240.778 234.326 240.627C234.386 240.476 234.386 240.326 234.326 240.175L228.809 230.617L228.025 231.069L232.969 239.602C225.371 236.919 220.216 229.924 217.442 222.296C218.045 221.421 218.618 220.517 219.161 219.643C231.914 218.919 245.12 217.773 258.657 216.236C255.823 220.577 253.019 225.311 250.456 230.316C241.894 246.989 237.341 263.662 236.889 279.943C236.678 288.113 237.522 296.163 239.391 304.093L81.978 345.368C81.7971 345.428 81.6464 345.579 81.6464 345.79C81.6464 346.001 81.767 346.152 81.9479 346.242L132.449 365.448L152.921 433.346C152.981 433.527 153.162 433.677 153.343 433.677C153.373 433.677 153.373 433.677 153.403 433.677C153.464 433.677 153.524 433.647 153.584 433.587L204.176 399.186L279.581 430.12C279.641 430.15 279.702 430.15 279.762 430.15C279.853 430.15 279.973 430.12 280.033 430.059C341.208 380.191 379.408 349.046 394.151 336.986L394.061 337.378L393.91 337.68C393.94 337.71 394.031 337.74 394.121 337.831C395.056 338.434 397.95 340.303 401.357 340.966C402.141 341.117 402.895 341.207 403.618 341.207C406.965 341.207 409.739 339.64 411.698 336.594C412 336.142 412.271 335.69 412.512 335.238C412.573 335.238 412.693 335.238 412.904 335.238C414.502 335.238 420.08 334.876 423.547 330.052C427.015 329.238 431.296 326.464 432.08 317.811C432.442 313.982 430.633 310.696 428.432 308.163L497.867 240.295C497.897 240.265 497.927 240.235 497.958 240.175C497.958 240.175 497.958 240.175 497.958 240.145C497.988 240.114 497.988 240.054 497.988 240.024C498.018 239.934 498.018 239.873 497.988 239.843ZM215.723 203.633C216.628 199.442 218.588 197.121 221.181 197.121C221.392 197.121 221.603 197.151 221.844 197.181C224.768 197.603 225.01 200.799 224.708 203.422C224.226 207.703 221.995 213.341 218.708 218.829C217.955 218.859 217.231 218.919 216.477 218.949C215.03 213.462 214.789 207.944 215.723 203.633ZM177.523 199.472C178.307 198.718 179.212 198.357 180.207 198.357C180.84 198.357 181.503 198.507 182.197 198.809C186.478 200.618 185.151 206.346 184.006 209.603C182.86 212.829 180.96 216.266 178.579 219.643C177.403 219.612 176.197 219.612 175.051 219.582C173.333 211.14 174.237 202.578 177.523 199.472ZM132.6 198.417C133.354 197.995 134.107 197.784 134.831 197.784C135.796 197.784 136.73 198.146 137.665 198.869C140.65 201.221 140.348 206.045 136.881 212.105C136.007 213.613 134.952 215.15 133.776 216.688C130.58 216.296 127.565 215.874 124.731 215.422C125.484 207.462 128.952 200.437 132.6 198.417ZM118.731 230.195C110.198 235.471 102.118 237.069 95.9978 234.657C92.4401 233.27 90.209 230.919 89.4251 227.723C88.1286 222.537 90.5708 215.723 93.827 209.603C100.008 211.412 107.756 213.341 117.163 215.03C119.334 215.422 121.535 215.814 123.796 216.145C123.645 218.135 123.675 220.125 123.887 222.085C124.037 223.441 124.278 224.768 124.58 226.004C122.681 227.572 120.721 228.959 118.731 230.195ZM124.761 222.024C124.55 220.125 124.52 218.195 124.64 216.326C127.414 216.748 130.218 217.14 133.082 217.532C130.851 220.306 128.198 222.989 125.334 225.401C125.062 224.165 124.881 223.019 124.761 222.024ZM166.549 232.306C157.082 239.753 147.313 242.526 139.082 240.114C130.61 237.642 127.082 231.492 125.605 226.336C128.801 223.683 131.726 220.698 134.168 217.623C146.71 219.19 160.127 220.155 174.297 220.487C174.539 221.663 174.84 222.808 175.202 223.954C172.609 226.999 169.654 229.863 166.549 232.306ZM175.202 220.547C176.076 220.577 176.981 220.577 177.885 220.607C177.252 221.482 176.589 222.326 175.895 223.17C175.624 222.296 175.413 221.421 175.202 220.547ZM213.311 226.517C209.09 231.642 200.648 240.145 191.302 239.391C182.558 238.697 178.307 230.165 176.528 225.16C176.408 224.828 176.317 224.497 176.197 224.165C177.192 222.989 178.126 221.783 178.971 220.577C181.473 220.607 183.975 220.638 186.508 220.638C195.975 220.638 205.774 220.366 215.814 219.854C216.025 220.638 216.266 221.391 216.537 222.175C215.512 223.683 214.427 225.13 213.311 226.517ZM217.171 221.271C217.02 220.788 216.869 220.306 216.749 219.854C217.201 219.824 217.683 219.793 218.135 219.763C217.804 220.276 217.502 220.758 217.171 221.271ZM485.536 243.129L381.368 274.817C381.79 272.134 382.242 269.3 382.694 266.405L485.536 243.129ZM384.774 240.717C384.774 250.788 378.473 286.606 377.9 289.892L363.76 295.862C357.881 293.42 351.459 289.47 345.248 284.375C349.439 273.913 353.238 243.069 353.418 241.743L352.514 241.622C352.484 241.954 348.625 273.099 344.524 283.742C342.353 281.933 340.243 280.003 338.163 277.953C324.655 264.566 315.309 247.953 311.781 231.16C312.294 230.014 316.213 221.693 323.088 213.462C329.841 205.352 340.906 195.673 355.288 195.583C362.494 195.553 368.524 197.874 373.197 202.487C383.267 212.557 384.774 230.768 384.774 240.717ZM343.559 196.879C332.826 195.854 314.917 209.512 309.58 222.356C307.771 216.085 305.751 211.17 303.671 207.341C305.178 205.593 315.972 193.744 327.701 193.05C337.891 192.447 342.504 195.553 343.861 196.759C343.771 196.819 343.65 196.849 343.559 196.879ZM392.644 141.162C398.101 138.75 403.528 136.368 408.834 134.077L418.754 158.348C413.598 161.483 407.93 165.041 402.473 168.538L392.644 141.162ZM456.984 124.399C457.888 124.67 458.582 125.514 459.004 126.811C459.456 128.258 459.185 129.796 458.16 131.454C456.049 134.861 451.316 137.604 449.084 137.936C448.693 137.936 448.301 137.906 447.909 137.906C446.672 137.695 445.587 136.881 445.135 135.795C444.622 134.559 445.135 133.263 446.552 132.238C449.868 129.826 452.28 129.193 452.28 129.193L452.069 128.318C451.979 128.348 449.476 128.982 446.009 131.514C444.26 132.78 443.627 134.529 444.291 136.157C444.592 136.911 445.135 137.544 445.798 137.996C445.346 138.027 444.863 138.057 444.381 138.117C440.612 138.539 438.502 137.725 438.11 136.73C437.839 136.067 438.321 135.162 439.497 134.258C440.401 133.534 443.054 131.846 446.401 129.675C448.512 128.318 450.833 126.811 453.185 125.243C454.059 124.73 455.657 123.977 456.984 124.399ZM465.727 110.62C466.481 110.59 467.114 111.012 467.385 111.675C467.747 112.58 467.355 113.665 466.33 114.6C463.587 117.133 458.129 120.901 452.733 124.459C452.341 124.7 452.069 124.881 452.039 124.911C449.929 126.298 447.818 127.655 445.919 128.891C442.542 131.062 439.889 132.811 438.954 133.534C436.904 135.132 437.055 136.429 437.296 137.062C437.959 138.66 440.703 139.413 444.502 138.991C445.708 138.871 446.823 138.81 447.848 138.78C448.09 138.81 448.331 138.841 448.572 138.841C448.753 138.841 448.934 138.841 449.115 138.81C451.707 138.931 453.456 139.413 454.18 140.016C454.421 140.228 454.542 140.439 454.572 140.65C454.722 143.303 449.989 144.569 443.989 146.167C441.969 146.71 439.647 147.343 437.356 148.067C434.763 148.881 427.829 152.77 419.537 157.805L409.678 133.655C438.743 121.022 463.195 110.68 465.727 110.62ZM290.315 173.604C290.978 173.362 292.425 173.151 293.48 175.382C294.837 171.282 299.842 168.146 301.5 167.182C304.817 169.955 306.143 173.513 305.269 177.252C304.364 181.051 301.169 184.518 297.973 185.151C294.596 185.844 291.279 184.85 289.259 184.005C290.918 183.342 291.46 179.875 291.581 179C288.626 177.885 287.903 174.508 290.315 173.604ZM251.331 230.798C264.989 204.206 284.707 186.176 287.119 184.035C288.325 184.729 293.088 187.111 298.154 186.086C300.927 185.513 303.611 183.161 305.148 180.176C308.163 178.819 350.494 159.765 390.955 141.946L397.166 171.975C383.9 180.629 368.433 191.241 363.669 195.854C361.137 195.101 358.393 194.709 355.469 194.709C355.408 194.709 355.348 194.709 355.288 194.709C351.579 194.739 348.112 195.372 344.856 196.427C343.891 195.432 339.308 191.483 327.67 192.146C315.882 192.839 305.45 203.965 303.249 206.497C300.897 202.306 298.546 199.472 296.525 197.573C291.37 192.719 287.239 192.628 287.058 192.628V193.533C287.088 193.533 291.098 193.653 295.983 198.327C300.535 202.668 306.807 211.864 310.847 231.22C314.374 248.225 323.872 265.049 337.529 278.616C349.107 290.103 362.554 298.033 372.624 299.299C372.895 299.329 373.167 299.359 373.438 299.389C370.393 301.108 358.996 309.188 365.81 330.233C329.419 327.549 307.832 308.645 295.53 291.189C289.47 281.51 280.787 264.204 274.456 237.13C274.456 237.13 273.642 253.682 279.008 272.887C282.234 284.405 289.983 299.208 296.797 304.183C285.099 310.816 272.556 313.68 263.541 314.917C253.411 316.304 245.662 315.942 244.034 315.821C231.613 282.596 240.386 252.084 251.331 230.798ZM381.94 316.424C382.724 324.173 386.101 328.364 387.639 329.931C382.182 330.444 376.996 330.625 372.051 330.534C370.996 329.117 368.222 324.504 368.252 315.128C368.313 305.027 373.921 300.867 375.941 299.661C380.644 300.143 384.895 300.384 388.784 300.414C386.553 302.465 381.126 308.404 381.94 316.424ZM255.28 337.77C250.607 330.685 247.019 323.66 244.336 316.726C245.15 316.756 246.567 316.816 248.466 316.816C252.054 316.816 257.391 316.635 263.602 315.791C274.124 314.374 289.38 310.726 302.616 301.56C306.867 306.233 311.48 310.394 316.455 313.982L255.28 337.77ZM133.293 364.966C133.233 364.845 133.143 364.755 133.022 364.694L83.6363 345.911L239.663 304.997C241.14 311.027 243.22 316.937 245.904 322.786L133.293 364.966ZM153.856 432.411V378.563L203.151 398.794L153.856 432.411ZM279.641 429.185L154.609 377.9L317.329 314.615C320.766 317.057 324.384 319.228 328.123 321.128C345.218 329.811 365.599 333.067 388.724 330.715C391.558 330.444 397.528 330.926 399.669 331.228C390.262 339.006 285.068 424.753 279.641 429.185ZM431.175 317.69C430.633 323.66 428.251 327.489 424.271 328.846C424.603 328.243 424.934 327.58 425.206 326.886C426.713 322.937 426.773 319.409 425.387 316.424C423.397 312.113 419.145 310.515 418.965 310.454L418.663 311.299C418.693 311.299 422.763 312.836 424.572 316.816C425.839 319.56 425.748 322.846 424.361 326.555C421.588 333.911 414.683 334.303 412.935 334.303C414.08 331.77 414.382 329.328 413.809 326.977C412.573 322.002 407.93 319.318 407.719 319.198L407.266 319.982C407.297 320.012 411.789 322.575 412.904 327.188C413.598 329.992 412.904 332.976 410.915 336.052C408.683 339.489 405.518 340.846 401.478 340.062C398.221 339.429 395.478 337.65 394.573 337.047C394.422 336.956 394.332 336.896 394.272 336.866C398.764 333.188 401.025 331.348 401.055 331.288C401.176 331.137 401.176 330.926 401.086 330.776C400.965 330.595 400.814 330.323 395.99 329.961C394.543 329.841 391.046 329.63 388.875 329.811C388.091 329.117 383.749 325.017 382.875 316.334C381.971 307.409 389.267 301.168 390.201 300.414C408.834 300.294 418.271 295.379 423.909 292.455C427.557 290.555 429.547 289.53 431.567 290.706C433.708 291.972 433.437 293.932 432.864 295.379C431.266 299.269 425.387 303.52 421.527 302.555C421.316 302.495 421.075 302.615 420.985 302.826C420.894 303.038 420.985 303.279 421.196 303.399C421.256 303.46 431.929 309.369 431.175 317.69ZM427.829 307.47C426.17 305.721 424.422 304.394 423.155 303.58C427.226 303.249 432.11 299.42 433.617 295.741C434.643 293.239 434.04 291.189 431.959 289.952C429.517 288.505 427.105 289.772 423.427 291.671C416.342 295.349 403.166 302.223 372.654 298.394C370.242 298.093 367.649 297.399 364.906 296.344L495.485 241.29L427.829 307.47Z" fill="#121127"/>
</svg>
