<svg width="32" height="32" viewBox="0 0 32 32" fill="none" xmlns="http://www.w3.org/2000/svg">
<path d="M24.0165 8.61548H20.2183C19.9749 8.61553 19.737 8.68774 19.5347 8.82298C19.3323 8.95823 19.1746 9.15043 19.0815 9.37529C18.9884 9.60015 18.964 9.84758 19.0115 10.0863C19.0589 10.325 19.1761 10.5443 19.3482 10.7164L20.6848 12.053L16.2713 16.4653C16.0368 16.6894 15.7249 16.8145 15.4005 16.8145C15.0761 16.8145 14.7642 16.6894 14.5297 16.4653L14.3205 16.2549C13.6172 15.583 12.682 15.208 11.7094 15.208C10.7368 15.208 9.80158 15.583 9.09833 16.2549L2.82141 22.5318C2.59014 22.7637 2.46048 23.078 2.46094 23.4055C2.4614 23.7331 2.59195 24.047 2.82387 24.2782C3.0558 24.5095 3.37009 24.6392 3.69761 24.6387C4.02514 24.6383 4.33907 24.5077 4.57033 24.2758L10.8473 17.9989C11.0816 17.7745 11.3936 17.6492 11.718 17.6492C12.0425 17.6492 12.3544 17.7745 12.5888 17.9989L12.798 18.2093C13.5016 18.8807 14.4366 19.2552 15.4091 19.2552C16.3816 19.2552 17.3166 18.8807 18.0202 18.2093L22.4337 13.7958L23.7703 15.1324C23.943 15.3017 24.1618 15.4164 24.3993 15.4621C24.6368 15.5078 24.8824 15.4825 25.1056 15.3894C25.3288 15.2963 25.5197 15.1395 25.6543 14.9386C25.7889 14.7377 25.8614 14.5016 25.8626 14.2598V10.4616C25.8626 9.972 25.6681 9.50243 25.3219 9.1562C24.9757 8.80998 24.5061 8.61548 24.0165 8.61548Z" fill="#0452D7"/>
<circle cx="16" cy="16" r="15.1652" stroke="#0452D7" stroke-width="1.66957"/>
</svg>
